<?xml version="1.0" encoding="us-ascii" standalone="no"?><svg xmlns="http://www.w3.org/2000/svg" xmlns:xlink="http://www.w3.org/1999/xlink" contentStyleType="text/css" height="1074px" preserveAspectRatio="none" style="width:1065px;height:1074px;background:#FFFFFF;" version="1.1" viewBox="0 0 1065 1074" width="1065px" zoomAndPan="magnify"><defs/><g><!--cluster node--><g id="cluster_node"><polygon fill="none" points="16,16,26,6,1048,6,1048,1047.72,1038,1057.72,16,1057.72,16,16" style="stroke:#181818;stroke-width:1.0;"/><line style="stroke:#181818;stroke-width:1.0;" x1="1038" x2="1048" y1="16" y2="6"/><line style="stroke:#181818;stroke-width:1.0;" x1="16" x2="1038" y1="16" y2="16"/><line style="stroke:#181818;stroke-width:1.0;" x1="1038" x2="1038" y1="16" y2="1057.72"/><text fill="#000000" font-family="sans-serif" font-size="14" font-weight="bold" lengthAdjust="spacing" textLength="40" x="508" y="31.9951">node</text></g><!--cluster alg_base--><g id="cluster_alg_base"><rect fill="none" height="441" rx="2.5" ry="2.5" style="stroke:#181818;stroke-width:1.0;" width="984" x="40" y="54"/><text fill="#000000" font-family="sans-serif" font-size="14" font-weight="bold" lengthAdjust="spacing" textLength="68" x="498" y="68.9951">alg_base</text></g><!--class SR_auto_ctl--><g id="elem_SR_auto_ctl"><rect codeLine="143" fill="#F1F1F1" height="483.7188" id="SR_auto_ctl" rx="2.5" ry="2.5" style="stroke:#181818;stroke-width:0.5;" width="237" x="518.5" y="558"/><ellipse cx="597.25" cy="574" fill="#ADD1B2" rx="11" ry="11" style="stroke:#181818;stroke-width:1.0;"/><path d="M600.2188,579.6406 Q599.6406,579.9375 599,580.0781 Q598.3594,580.2344 597.6563,580.2344 Q595.1563,580.2344 593.8281,578.5938 Q592.5156,576.9375 592.5156,573.8125 Q592.5156,570.6875 593.8281,569.0313 Q595.1563,567.375 597.6563,567.375 Q598.3594,567.375 599,567.5313 Q599.6563,567.6875 600.2188,567.9844 L600.2188,570.7031 Q599.5938,570.125 599,569.8594 Q598.4063,569.5781 597.7813,569.5781 Q596.4375,569.5781 595.75,570.6563 Q595.0625,571.7188 595.0625,573.8125 Q595.0625,575.9063 595.75,576.9844 Q596.4375,578.0469 597.7813,578.0469 Q598.4063,578.0469 599,577.7813 Q599.5938,577.5 600.2188,576.9219 L600.2188,579.6406 Z " fill="#000000"/><text fill="#000000" font-family="sans-serif" font-size="14" lengthAdjust="spacing" textLength="71" x="617.75" y="578.8467">&#1040;&#1083;&#1075;&#1086;&#1088;&#1080;&#1090;&#1084;</text><line style="stroke:#181818;stroke-width:0.5;" x1="519.5" x2="754.5" y1="590" y2="590"/><rect fill="none" height="6" style="stroke:#C82930;stroke-width:1.0;" width="6" x="526.5" y="620.9453"/><text fill="#000000" font-family="sans-serif" font-size="14" lengthAdjust="spacing" textLength="99" x="538.5" y="627.292">&#1074;&#1093;&#1086;&#1076;_0 : float*</text><rect fill="none" height="6" style="stroke:#C82930;stroke-width:1.0;" width="6" x="526.5" y="637.2422"/><text fill="#000000" font-family="sans-serif" font-size="14" lengthAdjust="spacing" textLength="185" x="538.5" y="643.5889">&#1080;&#1084;&#1103;_&#1074;&#1093;&#1086;&#1076;&#1072;_0 : const char*</text><text fill="#000000" font-family="sans-serif" font-size="14" lengthAdjust="spacing" textLength="12" x="538.5" y="659.8857">...</text><rect fill="none" height="6" style="stroke:#C82930;stroke-width:1.0;" width="6" x="526.5" y="669.8359"/><text fill="#000000" font-family="sans-serif" font-size="14" lengthAdjust="spacing" textLength="93" x="538.5" y="676.1826">&#1074;&#1093;&#1086;&#1076;_i : float*</text><rect fill="none" height="6" style="stroke:#C82930;stroke-width:1.0;" width="6" x="526.5" y="686.1328"/><text fill="#000000" font-family="sans-serif" font-size="14" lengthAdjust="spacing" textLength="179" x="538.5" y="692.4795">&#1080;&#1084;&#1103;_&#1074;&#1093;&#1086;&#1076;&#1072;_i : const char*</text><line style="stroke:#181818;stroke-width:1.0;stroke-dasharray:1.0,2.0;" x1="519.5" x2="556" y1="606.1484" y2="606.1484"/><text fill="#000000" font-family="sans-serif" font-size="14" lengthAdjust="spacing" textLength="162" x="556" y="610.4951">&#1042;&#1093;&#1086;&#1076;&#1085;&#1099;&#1077; &#1087;&#1077;&#1088;&#1077;&#1084;&#1077;&#1085;&#1085;&#1099;&#1077;</text><line style="stroke:#181818;stroke-width:1.0;stroke-dasharray:1.0,2.0;" x1="718" x2="754.5" y1="606.1484" y2="606.1484"/><rect fill="none" height="6" style="stroke:#C82930;stroke-width:1.0;" width="6" x="526.5" y="722.7266"/><text fill="#000000" font-family="sans-serif" font-size="14" lengthAdjust="spacing" textLength="110" x="538.5" y="729.0732">&#1074;&#1099;&#1093;&#1086;&#1076;_0 : float*</text><rect fill="none" height="6" style="stroke:#C82930;stroke-width:1.0;" width="6" x="526.5" y="739.0234"/><text fill="#000000" font-family="sans-serif" font-size="14" lengthAdjust="spacing" textLength="196" x="538.5" y="745.3701">&#1080;&#1084;&#1103;_&#1074;&#1099;&#1093;&#1086;&#1076;&#1072;_0 : const char*</text><text fill="#000000" font-family="sans-serif" font-size="14" lengthAdjust="spacing" textLength="12" x="538.5" y="761.667">...</text><rect fill="none" height="6" style="stroke:#C82930;stroke-width:1.0;" width="6" x="526.5" y="771.6172"/><text fill="#000000" font-family="sans-serif" font-size="14" lengthAdjust="spacing" textLength="110" x="538.5" y="777.9639">&#1074;&#1099;&#1093;&#1086;&#1076;_o : float*</text><rect fill="none" height="6" style="stroke:#C82930;stroke-width:1.0;" width="6" x="526.5" y="787.9141"/><text fill="#000000" font-family="sans-serif" font-size="14" lengthAdjust="spacing" textLength="196" x="538.5" y="794.2607">&#1080;&#1084;&#1103;_&#1074;&#1099;&#1093;&#1086;&#1076;&#1072;_o : const char*</text><line style="stroke:#181818;stroke-width:1.0;stroke-dasharray:1.0,2.0;" x1="519.5" x2="550.5" y1="707.9297" y2="707.9297"/><text fill="#000000" font-family="sans-serif" font-size="14" lengthAdjust="spacing" textLength="173" x="550.5" y="712.2764">&#1042;&#1099;&#1093;&#1086;&#1076;&#1085;&#1099;&#1077; &#1087;&#1077;&#1088;&#1077;&#1084;&#1077;&#1085;&#1085;&#1099;&#1077;</text><line style="stroke:#181818;stroke-width:1.0;stroke-dasharray:1.0,2.0;" x1="723.5" x2="754.5" y1="707.9297" y2="707.9297"/><rect fill="none" height="6" style="stroke:#C82930;stroke-width:1.0;" width="6" x="526.5" y="824.5078"/><text fill="#000000" font-family="sans-serif" font-size="14" lengthAdjust="spacing" textLength="121" x="538.5" y="830.8545">&#1091;&#1089;&#1090;&#1072;&#1074;&#1082;&#1072;_0 : float*</text><rect fill="none" height="6" style="stroke:#C82930;stroke-width:1.0;" width="6" x="526.5" y="840.8047"/><text fill="#000000" font-family="sans-serif" font-size="14" lengthAdjust="spacing" textLength="200" x="538.5" y="847.1514">&#1080;&#1084;&#1103;_&#1091;&#1089;&#1090;&#1072;&#1074;&#1082;&#1080;_0 : const char*</text><rect fill="none" height="6" style="stroke:#C82930;stroke-width:1.0;" width="6" x="526.5" y="857.1016"/><text fill="#000000" font-family="sans-serif" font-size="14" lengthAdjust="spacing" textLength="211" x="538.5" y="863.4482">&#1085;&#1072;&#1095;&#1072;&#1083;&#1100;&#1085;&#1086;&#1077;_&#1079;&#1085;&#1072;&#1095;&#1077;&#1085;&#1080;&#1077;_0 : float</text><text fill="#000000" font-family="sans-serif" font-size="14" lengthAdjust="spacing" textLength="12" x="538.5" y="879.7451">...</text><rect fill="none" height="6" style="stroke:#C82930;stroke-width:1.0;" width="6" x="526.5" y="889.6953"/><text fill="#000000" font-family="sans-serif" font-size="14" lengthAdjust="spacing" textLength="120" x="538.5" y="896.042">&#1091;&#1089;&#1090;&#1072;&#1074;&#1082;&#1072;_s : float*</text><rect fill="none" height="6" style="stroke:#C82930;stroke-width:1.0;" width="6" x="526.5" y="905.9922"/><text fill="#000000" font-family="sans-serif" font-size="14" lengthAdjust="spacing" textLength="199" x="538.5" y="912.3389">&#1080;&#1084;&#1103;_&#1091;&#1089;&#1090;&#1072;&#1074;&#1082;&#1080;_s : const char*</text><rect fill="none" height="6" style="stroke:#C82930;stroke-width:1.0;" width="6" x="526.5" y="922.2891"/><text fill="#000000" font-family="sans-serif" font-size="14" lengthAdjust="spacing" textLength="210" x="538.5" y="928.6357">&#1085;&#1072;&#1095;&#1072;&#1083;&#1100;&#1085;&#1086;&#1077;_&#1079;&#1085;&#1072;&#1095;&#1077;&#1085;&#1080;&#1077;_s : float</text><line style="stroke:#181818;stroke-width:1.0;stroke-dasharray:1.0,2.0;" x1="519.5" x2="608" y1="809.7109" y2="809.7109"/><text fill="#000000" font-family="sans-serif" font-size="14" lengthAdjust="spacing" textLength="58" x="608" y="814.0576">&#1059;&#1089;&#1090;&#1072;&#1074;&#1082;&#1080;</text><line style="stroke:#181818;stroke-width:1.0;stroke-dasharray:1.0,2.0;" x1="666" x2="754.5" y1="809.7109" y2="809.7109"/><line style="stroke:#181818;stroke-width:1.0;stroke-dasharray:1.0,2.0;" x1="519.5" x2="548.5" y1="944.0859" y2="944.0859"/><text fill="#000000" font-family="sans-serif" font-size="14" lengthAdjust="spacing" textLength="177" x="548.5" y="948.4326">&#1055;&#1086;&#1083;&#1100;&#1079;&#1086;&#1074;&#1072;&#1090;&#1077;&#1083;&#1100;&#1089;&#1082;&#1080;&#1077; &#1087;&#1086;&#1083;&#1103;</text><line style="stroke:#181818;stroke-width:1.0;stroke-dasharray:1.0,2.0;" x1="725.5" x2="754.5" y1="944.0859" y2="944.0859"/><line style="stroke:#181818;stroke-width:0.5;" x1="519.5" x2="754.5" y1="960.3828" y2="960.3828"/><ellipse cx="529.5" cy="974.0313" fill="#84BE84" rx="3" ry="3" style="stroke:#038048;stroke-width:1.0;"/><text fill="#000000" font-family="sans-serif" font-size="14" lengthAdjust="spacing" textLength="106" x="538.5" y="977.3779">&#1050;&#1086;&#1085;&#1089;&#1090;&#1088;&#1091;&#1082;&#1090;&#1086;&#1088;()</text><ellipse cx="529.5" cy="990.3281" fill="#84BE84" rx="3" ry="3" style="stroke:#038048;stroke-width:1.0;"/><text fill="#000000" font-family="sans-serif" font-size="14" lengthAdjust="spacing" textLength="99" x="538.5" y="993.6748">&#1044;&#1077;&#1089;&#1090;&#1088;&#1091;&#1082;&#1090;&#1086;&#1088;()</text><ellipse cx="529.5" cy="1006.625" fill="#84BE84" rx="3" ry="3" style="stroke:#038048;stroke-width:1.0;"/><text fill="#000000" font-family="sans-serif" font-size="14" font-style="italic" lengthAdjust="spacing" textLength="102" x="538.5" y="1009.9717">&#1088;&#1072;&#1089;&#1095;&#1105;&#1090;() : void</text><line style="stroke:#181818;stroke-width:1.0;stroke-dasharray:1.0,2.0;" x1="519.5" x2="533.5" y1="1025.4219" y2="1025.4219"/><text fill="#000000" font-family="sans-serif" font-size="14" lengthAdjust="spacing" textLength="207" x="533.5" y="1029.7686">&#1055;&#1086;&#1083;&#1100;&#1079;&#1086;&#1074;&#1072;&#1090;&#1077;&#1083;&#1100;&#1089;&#1082;&#1080;&#1077; &#1092;&#1091;&#1085;&#1082;&#1094;&#1080;&#1080;</text><line style="stroke:#181818;stroke-width:1.0;stroke-dasharray:1.0,2.0;" x1="740.5" x2="754.5" y1="1025.4219" y2="1025.4219"/></g><g id="elem_GMN28"><path d="M790.5,772.16 L790.5,795.86 L755.84,799.86 L790.5,803.86 L790.5,827.5584 A0,0 0 0 0 790.5,827.5584 L907.5,827.5584 A0,0 0 0 0 907.5,827.5584 L907.5,782.16 L897.5,772.16 L790.5,772.16 A0,0 0 0 0 790.5,772.16 " fill="#FEFFDD" style="stroke:#181818;stroke-width:0.5;"/><path d="M897.5,772.16 L897.5,782.16 L907.5,782.16 L897.5,772.16 " fill="#FEFFDD" style="stroke:#181818;stroke-width:0.5;"/><text fill="#000000" font-family="sans-serif" font-size="13" lengthAdjust="spacing" textLength="92" x="796.5" y="789.2269">&#1056;&#1072;&#1089;&#1096;&#1080;&#1088;&#1077;&#1085;&#1085;&#1099;&#1081;</text><text fill="#000000" font-family="sans-serif" font-size="13" lengthAdjust="spacing" textLength="83" x="796.5" y="804.3597">&#1092;&#1091;&#1085;&#1082;&#1094;&#1080;&#1086;&#1085;&#1072;&#1083;</text><text fill="#000000" font-family="sans-serif" font-size="13" lengthAdjust="spacing" textLength="81" x="796.5" y="819.4925">&#1072;&#1083;&#1075;&#1086;&#1088;&#1080;&#1090;&#1084;&#1086;&#1074;</text></g><path d="M188.5,764.73 L188.5,789.8628 A0,0 0 0 0 188.5,789.8628 L483.5,789.8628 A0,0 0 0 0 483.5,789.8628 L483.5,782.73 L522.5,972.5313 L483.5,774.73 L483.5,774.73 L473.5,764.73 L188.5,764.73 A0,0 0 0 0 188.5,764.73 " fill="#FEFFDD" style="stroke:#181818;stroke-width:0.5;"/><path d="M473.5,764.73 L473.5,774.73 L483.5,774.73 L473.5,764.73 " fill="#FEFFDD" style="stroke:#181818;stroke-width:0.5;"/><text fill="#000000" font-family="sans-serif" font-size="13" lengthAdjust="spacing" textLength="274" x="194.5" y="781.7969">&#1044;&#1086;&#1073;&#1072;&#1074;&#1083;&#1077;&#1085;&#1080;&#1077; &#1074;&#1093;&#1086;&#1076;&#1086;&#1074;, &#1074;&#1099;&#1093;&#1086;&#1076;&#1086;&#1074; &#1080; &#1091;&#1089;&#1090;&#1072;&#1074;&#1086;&#1082;</text><path d="M188.5,799.8628 L188.5,824.9956 A0,0 0 0 0 188.5,824.9956 L445.5,824.9956 A0,0 0 0 0 445.5,824.9956 L445.5,817.8628 L522.5,1005.125 L445.5,809.8628 L445.5,809.8628 L435.5,799.8628 L188.5,799.8628 A0,0 0 0 0 188.5,799.8628 " fill="#FEFFDD" style="stroke:#181818;stroke-width:0.5;"/><path d="M435.5,799.8628 L435.5,809.8628 L445.5,809.8628 L435.5,799.8628 " fill="#FEFFDD" style="stroke:#181818;stroke-width:0.5;"/><text fill="#000000" font-family="sans-serif" font-size="13" lengthAdjust="spacing" textLength="236" x="194.5" y="816.9297">&#1056;&#1077;&#1072;&#1083;&#1080;&#1079;&#1072;&#1094;&#1080;&#1103; &#1088;&#1072;&#1089;&#1095;&#1105;&#1090;&#1085;&#1086;&#1081; &#1087;&#1088;&#1086;&#1094;&#1077;&#1076;&#1091;&#1088;&#1099;</text><!--class SR_calc_proc--><g id="elem_SR_calc_proc"><rect codeLine="81" fill="#F1F1F1" height="382.0859" id="SR_calc_proc" rx="2.5" ry="2.5" style="stroke:#181818;stroke-width:0.5;" width="440" x="417" y="93"/><ellipse cx="597.25" cy="109" fill="#A9DCDF" rx="11" ry="11" style="stroke:#181818;stroke-width:1.0;"/><path d="M597.3594,104.3438 L596.2031,109.4219 L598.5313,109.4219 L597.3594,104.3438 Z M595.875,102.1094 L598.8594,102.1094 L602.2188,114.5 L599.7656,114.5 L599,111.4375 L595.7188,111.4375 L594.9688,114.5 L592.5313,114.5 L595.875,102.1094 Z " fill="#000000"/><text fill="#000000" font-family="sans-serif" font-size="14" font-style="italic" lengthAdjust="spacing" textLength="71" x="617.75" y="113.8467">&#1040;&#1083;&#1075;&#1086;&#1088;&#1080;&#1090;&#1084;</text><line style="stroke:#181818;stroke-width:0.5;" x1="418" x2="856" y1="125" y2="125"/><polygon fill="none" points="428,133.6484,432,137.6484,428,141.6484,424,137.6484" style="stroke:#B38D22;stroke-width:1.0;"/><text fill="#000000" font-family="sans-serif" font-size="14" lengthAdjust="spacing" textLength="358" x="437" y="141.9951">&#1089;&#1087;&#1080;&#1089;&#1086;&#1082;_&#1080;&#1084;&#1105;&#1085;_&#1091;&#1089;&#1090;&#1072;&#1074;&#1086;&#1082; : std::vector&lt;const char*&gt;*</text><polygon fill="none" points="428,149.9453,432,153.9453,428,157.9453,424,153.9453" style="stroke:#B38D22;stroke-width:1.0;"/><text fill="#000000" font-family="sans-serif" font-size="14" lengthAdjust="spacing" textLength="277" x="437" y="158.292">&#1089;&#1087;&#1080;&#1089;&#1086;&#1082;_&#1091;&#1089;&#1090;&#1072;&#1074;&#1086;&#1082; : std::vector&lt;float**&gt;*</text><polygon fill="none" points="428,166.2422,432,170.2422,428,174.2422,424,170.2422" style="stroke:#B38D22;stroke-width:1.0;"/><text fill="#000000" font-family="sans-serif" font-size="14" lengthAdjust="spacing" textLength="352" x="437" y="174.5889">&#1089;&#1087;&#1080;&#1089;&#1086;&#1082;_&#1080;&#1084;&#1105;&#1085;_&#1074;&#1093;&#1086;&#1076;&#1086;&#1074; : std::vector&lt;const char*&gt;*</text><polygon fill="none" points="428,182.5391,432,186.5391,428,190.5391,424,186.5391" style="stroke:#B38D22;stroke-width:1.0;"/><text fill="#000000" font-family="sans-serif" font-size="14" lengthAdjust="spacing" textLength="271" x="437" y="190.8857">&#1089;&#1087;&#1080;&#1089;&#1086;&#1082;_&#1074;&#1093;&#1086;&#1076;&#1086;&#1074; : std::vector&lt;float**&gt;*</text><polygon fill="none" points="428,198.8359,432,202.8359,428,206.8359,424,202.8359" style="stroke:#B38D22;stroke-width:1.0;"/><text fill="#000000" font-family="sans-serif" font-size="14" lengthAdjust="spacing" textLength="363" x="437" y="207.1826">&#1089;&#1087;&#1080;&#1089;&#1086;&#1082;_&#1080;&#1084;&#1105;&#1085;_&#1074;&#1099;&#1093;&#1086;&#1076;&#1086;&#1074; : std::vector&lt;const char*&gt;*</text><polygon fill="none" points="428,215.1328,432,219.1328,428,223.1328,424,219.1328" style="stroke:#B38D22;stroke-width:1.0;"/><text fill="#000000" font-family="sans-serif" font-size="14" lengthAdjust="spacing" textLength="282" x="437" y="223.4795">&#1089;&#1087;&#1080;&#1089;&#1086;&#1082;_&#1074;&#1099;&#1093;&#1086;&#1076;&#1086;&#1074; : std::vector&lt;float**&gt;*</text><ellipse cx="428" cy="236.4297" fill="none" rx="3" ry="3" style="stroke:#038048;stroke-width:1.0;"/><text fill="#000000" font-family="sans-serif" font-size="14" lengthAdjust="spacing" textLength="151" x="437" y="239.7764">&#1087;&#1077;&#1088;&#1080;&#1086;&#1076;_&#1088;&#1072;&#1089;&#1095;&#1105;&#1090;&#1072; : int</text><ellipse cx="428" cy="252.7266" fill="none" rx="3" ry="3" style="stroke:#038048;stroke-width:1.0;"/><text fill="#000000" font-family="sans-serif" font-size="14" lengthAdjust="spacing" textLength="205" x="437" y="256.0732">&#1080;&#1084;&#1103;_&#1072;&#1083;&#1075;&#1086;&#1088;&#1080;&#1090;&#1084;&#1072; : const char*</text><ellipse cx="428" cy="269.0234" fill="none" rx="3" ry="3" style="stroke:#038048;stroke-width:1.0;"/><text fill="#000000" font-family="sans-serif" font-size="14" lengthAdjust="spacing" textLength="173" x="437" y="272.3701">&#1092;&#1083;&#1072;&#1075;_&#1075;&#1086;&#1090;&#1086;&#1074;&#1085;&#1086;&#1089;&#1090;&#1080; : bool</text><line style="stroke:#181818;stroke-width:0.5;" x1="418" x2="856" y1="279.6719" y2="279.6719"/><polygon fill="#FFFF44" points="428,288.3203,432,292.3203,428,296.3203,424,292.3203" style="stroke:#B38D22;stroke-width:1.0;"/><text fill="#000000" font-family="sans-serif" font-size="14" lengthAdjust="spacing" textLength="402" x="437" y="296.667">&#1076;&#1086;&#1073;&#1072;&#1074;&#1083;&#1077;&#1085;&#1080;&#1077;_&#1091;&#1089;&#1090;&#1072;&#1074;&#1082;&#1080;(&#1091;&#1089;&#1090;&#1072;&#1074;&#1082;&#1072; : float**, &#1080;&#1084;&#1103; : const char*,</text><text fill="#000000" font-family="sans-serif" font-size="14" lengthAdjust="spacing" textLength="241" x="437" y="312.9639">&#1085;&#1072;&#1095;&#1072;&#1083;&#1100;&#1085;&#1086;&#1077;_&#1079;&#1085;&#1072;&#1095;&#1077;&#1085;&#1080;&#1077; : float) : void</text><polygon fill="#FFFF44" points="428,320.9141,432,324.9141,428,328.9141,424,324.9141" style="stroke:#B38D22;stroke-width:1.0;"/><text fill="#000000" font-family="sans-serif" font-size="14" lengthAdjust="spacing" textLength="237" x="437" y="329.2607">&#1076;&#1086;&#1073;&#1072;&#1074;&#1083;&#1077;&#1085;&#1080;&#1077;_&#1074;&#1093;&#1086;&#1076;&#1072;(&#1074;&#1093;&#1086;&#1076; : float**,</text><text fill="#000000" font-family="sans-serif" font-size="14" lengthAdjust="spacing" textLength="166" x="437" y="345.5576">&#1080;&#1084;&#1103; : const char*) : void</text><polygon fill="#FFFF44" points="428,353.5078,432,357.5078,428,361.5078,424,357.5078" style="stroke:#B38D22;stroke-width:1.0;"/><text fill="#000000" font-family="sans-serif" font-size="14" lengthAdjust="spacing" textLength="259" x="437" y="361.8545">&#1076;&#1086;&#1073;&#1072;&#1074;&#1083;&#1077;&#1085;&#1080;&#1077;_&#1074;&#1099;&#1093;&#1086;&#1076;&#1072;(&#1074;&#1099;&#1093;&#1086;&#1076; : float**,</text><text fill="#000000" font-family="sans-serif" font-size="14" lengthAdjust="spacing" textLength="166" x="437" y="378.1514">&#1080;&#1084;&#1103; : const char*) : void</text><ellipse cx="428" cy="391.1016" fill="#84BE84" rx="3" ry="3" style="stroke:#038048;stroke-width:1.0;"/><text fill="#000000" font-family="sans-serif" font-size="14" lengthAdjust="spacing" textLength="106" x="437" y="394.4482">&#1050;&#1086;&#1085;&#1089;&#1090;&#1088;&#1091;&#1082;&#1090;&#1086;&#1088;()</text><ellipse cx="428" cy="407.3984" fill="#84BE84" rx="3" ry="3" style="stroke:#038048;stroke-width:1.0;"/><text fill="#000000" font-family="sans-serif" font-size="14" lengthAdjust="spacing" textLength="99" x="437" y="410.7451">&#1044;&#1077;&#1089;&#1090;&#1088;&#1091;&#1082;&#1090;&#1086;&#1088;()</text><ellipse cx="428" cy="423.6953" fill="#84BE84" rx="3" ry="3" style="stroke:#038048;stroke-width:1.0;"/><text fill="#000000" font-family="sans-serif" font-size="14" lengthAdjust="spacing" textLength="414" x="437" y="427.042">&#1088;&#1077;&#1075;&#1080;&#1089;&#1090;&#1088;&#1072;&#1094;&#1080;&#1103;_&#1087;&#1077;&#1088;&#1077;&#1084;&#1077;&#1085;&#1085;&#1099;&#1093;(&#1087;&#1086;&#1089;&#1088;&#1077;&#1076;&#1085;&#1080;&#1082; : &#1055;&#1086;&#1089;&#1088;&#1077;&#1076;&#1085;&#1080;&#1082;*) : int</text><ellipse cx="428" cy="439.9922" fill="#84BE84" rx="3" ry="3" style="stroke:#038048;stroke-width:1.0;"/><text fill="#000000" font-family="sans-serif" font-size="14" font-style="italic" lengthAdjust="spacing" textLength="102" x="437" y="443.3389">&#1088;&#1072;&#1089;&#1095;&#1105;&#1090;() : void</text><line style="stroke:#181818;stroke-width:1.0;stroke-dasharray:1.0,2.0;" x1="418" x2="440.5" y1="458.7891" y2="458.7891"/><text fill="#000000" font-family="sans-serif" font-size="14" lengthAdjust="spacing" textLength="393" x="440.5" y="463.1357">&#1055;&#1088;&#1086;&#1095;&#1080;&#1077; &#1092;&#1091;&#1085;&#1082;&#1094;&#1080;&#1080; &#1076;&#1083;&#1103; &#1074;&#1079;&#1072;&#1080;&#1084;&#1086;&#1076;&#1077;&#1081;&#1089;&#1090;&#1074;&#1080;&#1103; &#1089; &#1072;&#1083;&#1075;&#1086;&#1088;&#1080;&#1090;&#1084;&#1072;&#1084;&#1080;</text><line style="stroke:#181818;stroke-width:1.0;stroke-dasharray:1.0,2.0;" x1="833.5" x2="856" y1="458.7891" y2="458.7891"/></g><g id="elem_GMN18"><path d="M900,256.3 L900,280 L864.84,284 L900,288 L900,311.6984 A0,0 0 0 0 900,311.6984 L1008,311.6984 A0,0 0 0 0 1008,311.6984 L1008,266.3 L998,256.3 L900,256.3 A0,0 0 0 0 900,256.3 " fill="#FEFFDD" style="stroke:#181818;stroke-width:0.5;"/><path d="M998,256.3 L998,266.3 L1008,266.3 L998,256.3 " fill="#FEFFDD" style="stroke:#181818;stroke-width:0.5;"/><text fill="#000000" font-family="sans-serif" font-size="13" lengthAdjust="spacing" textLength="58" x="906" y="273.3669">&#1041;&#1072;&#1079;&#1086;&#1074;&#1099;&#1081;</text><text fill="#000000" font-family="sans-serif" font-size="13" lengthAdjust="spacing" textLength="83" x="906" y="288.4997">&#1092;&#1091;&#1085;&#1082;&#1094;&#1080;&#1086;&#1085;&#1072;&#1083;</text><text fill="#000000" font-family="sans-serif" font-size="13" lengthAdjust="spacing" textLength="81" x="906" y="303.6325">&#1072;&#1083;&#1075;&#1086;&#1088;&#1080;&#1090;&#1084;&#1086;&#1074;</text></g><path d="M56.5,208.6 L56.5,233.7328 A0,0 0 0 0 56.5,233.7328 L288.5,233.7328 A0,0 0 0 0 288.5,233.7328 L288.5,226.6 L421,389.6016 L288.5,218.6 L288.5,218.6 L278.5,208.6 L56.5,208.6 A0,0 0 0 0 56.5,208.6 " fill="#FEFFDD" style="stroke:#181818;stroke-width:0.5;"/><path d="M278.5,208.6 L278.5,218.6 L288.5,218.6 L278.5,208.6 " fill="#FEFFDD" style="stroke:#181818;stroke-width:0.5;"/><text fill="#000000" font-family="sans-serif" font-size="13" lengthAdjust="spacing" textLength="211" x="62.5" y="225.6669">&#1042;&#1099;&#1076;&#1077;&#1083;&#1077;&#1085;&#1080;&#1077; &#1087;&#1072;&#1084;&#1103;&#1090;&#1080; &#1087;&#1086;&#1076; &#1089;&#1087;&#1080;&#1089;&#1082;&#1080;</text><path d="M56.5,243.7328 L56.5,299.1313 A0,0 0 0 0 56.5,299.1313 L373.5,299.1313 A0,0 0 0 0 373.5,299.1313 L373.5,275.432 L421,234.9297 L373.5,267.432 L373.5,253.7328 L363.5,243.7328 L56.5,243.7328 A0,0 0 0 0 56.5,243.7328 " fill="#FEFFDD" style="stroke:#181818;stroke-width:0.5;"/><path d="M363.5,243.7328 L363.5,253.7328 L373.5,253.7328 L363.5,243.7328 " fill="#FEFFDD" style="stroke:#181818;stroke-width:0.5;"/><text fill="#000000" font-family="sans-serif" font-size="13" lengthAdjust="spacing" textLength="154" x="62.5" y="260.7997">&#1055;&#1072;&#1088;&#1072;&#1084;&#1077;&#1090;&#1088; &#1086;&#1087;&#1088;&#1077;&#1076;&#1077;&#1083;&#1103;&#1077;&#1090;</text><text fill="#000000" font-family="sans-serif" font-size="13" lengthAdjust="spacing" textLength="234" x="62.5" y="275.9325">&#1082;&#1072;&#1090;&#1077;&#1075;&#1086;&#1088;&#1080;&#1102; "&#1073;&#1099;&#1089;&#1090;&#1088;&#1099;&#1081;/&#1084;&#1077;&#1076;&#1083;&#1077;&#1085;&#1085;&#1099;&#1081;".</text><text fill="#000000" font-family="sans-serif" font-size="13" lengthAdjust="spacing" textLength="296" x="62.5" y="291.0653">&#1047;&#1072;&#1076;&#1072;&#1105;&#1090;&#1089;&#1103; &#1085;&#1086;&#1084;&#1080;&#1085;&#1072;&#1083;&#1100;&#1085;&#1099;&#1081; &#1090;&#1072;&#1082;&#1090; &#1088;&#1072;&#1089;&#1095;&#1105;&#1090;&#1072; &#1074; &#1084;&#1089;.</text><path d="M56.5,309.1313 L56.5,349.3969 A0,0 0 0 0 56.5,349.3969 L293.5,349.3969 A0,0 0 0 0 293.5,349.3969 L293.5,333.2641 L421,267.5234 L293.5,325.2641 L293.5,319.1313 L283.5,309.1313 L56.5,309.1313 A0,0 0 0 0 56.5,309.1313 " fill="#FEFFDD" style="stroke:#181818;stroke-width:0.5;"/><path d="M283.5,309.1313 L283.5,319.1313 L293.5,319.1313 L283.5,309.1313 " fill="#FEFFDD" style="stroke:#181818;stroke-width:0.5;"/><text fill="#000000" font-family="sans-serif" font-size="13" lengthAdjust="spacing" textLength="160" x="62.5" y="326.1981">&#1040;&#1083;&#1075;&#1086;&#1088;&#1080;&#1090;&#1084; &#1085;&#1077; &#1088;&#1072;&#1073;&#1086;&#1090;&#1072;&#1077;&#1090;,</text><text fill="#000000" font-family="sans-serif" font-size="13" lengthAdjust="spacing" textLength="216" x="62.5" y="341.331">&#1077;&#1089;&#1083;&#1080; &#1077;&#1075;&#1086; &#1074;&#1093;&#1086;&#1076;&#1099; &#1085;&#1077; &#1087;&#1086;&#1076;&#1082;&#1083;&#1102;&#1095;&#1077;&#1085;&#1099;</text><!--reverse link SR_calc_proc to SR_auto_ctl--><g id="link_SR_calc_proc_SR_auto_ctl"><path codeLine="193" d="M637,496.9 C637,522.64 637,531.27 637,557.68 " fill="none" id="SR_calc_proc-backto-SR_auto_ctl" style="stroke:#181818;stroke-width:1.0;"/><polygon fill="none" points="637,478.9,631,496.9,643,496.9,637,478.9" style="stroke:#181818;stroke-width:1.0;"/><text fill="#000000" font-family="sans-serif" font-size="13" lengthAdjust="spacing" textLength="309" x="638" y="524.0669">&#1055;&#1086;&#1076;&#1082;&#1083;&#1102;&#1095;&#1077;&#1085;&#1080;&#1077; &#1087;&#1086;&#1083;&#1100;&#1079;&#1086;&#1074;&#1072;&#1090;&#1077;&#1083;&#1100;&#1089;&#1082;&#1080;&#1093; &#1072;&#1083;&#1075;&#1086;&#1088;&#1080;&#1090;&#1084;&#1086;&#1074;</text><text fill="#000000" font-family="sans-serif" font-size="13" lengthAdjust="spacing" textLength="23" x="613.7664" y="495.0786">0..*</text></g><!--SRC=[lLfVQnj747_tfrWSFoXAfAQlmlYzq9QIl1OEMPOT4KLdf8kXTGsMuyO5bIGEXKAXTKA_WApuwjDVVuMzRzIPsRkztRszqybnOWZHhNPcvz_E_6PE-_N6i_fUatNSdIRRtFmU_jlQOeTh3Fxse- -UF7OQRcUtjGSR7ZSRNhspryPT6yaNWW3_UbxtHSDZw_mVViE3iC-7VCu3xl_OuHE-u3C-2r-69_3DSVYI-_2yu6FuxeRxuJ4z-x1_ZglhhDvZxLRdcNDGxpexhLwZszhttAvo6FuzOC1-pg-0S1Bs7Jvo-2KSSIeOiXhhjNvkEfv9Smqqm_2CZWFn791q5Bw1vG18TjjktIjBaYFvINvejEkz7cZvLwmJiPa0onE-28z9zczHzkz- -8Pjo4-ww1L6civGL0TONFCf7yBnhOvdx0FfX3KNVEAWv8wqs1Mg4Ru4Cescv-tKQWVWBRUxQVg2PRk2sJonLIuW3X05uJcViTgNakC1Wmr3i9emeEBsOQQDJDCMu94ePg5E23AFD88fYquvnaBXE2O3ZBnvs0zFo6mJ4NUbp82wRzB_0PjCwjIc6-0s1KcJUv8S05B7HvJksurp1NilmRmZs2GPZ9pbqLnAkNyOlf6MUQYTK-Zweu07Rcld4oIC7VIbP8ETu1-wAmkGRu92J54WM9g6lzFoHxv0su7l87TTYJsZS23Co8DIbjhNm8Dy2roasallpoUpaoRCOYHazrLdt5wgOiooPKhIViVrcgpRsdlgCNTNvlLQxGvSf8VB1zf7kJ3c27emZTxNIKQmyHeLag8448vgu24dITFix90wwPAMLRbPJda61435kIcByqPwoLAlP-4RnyOKN028ekUnnjDwjvn11xP5gvBZJe1wc4i5PZaBpo7HdM61TaWpaTP-XxX58miznvyRAbo0oFqeS0aig1Pijq3ymzmoEmf_XG-Oi4Qh5VlLAph4v-Sy37q6fkW31QH4tRpZnBm- -IGoS9wyMCLWzwM03oXxAhXmyOihaXRBhjjj2lqjwdcrolW59XQw2ZxQ46ex_mzbH0lXqYaXsKdu2dO4G946IpxSlK2S1Dg-mcoZnMQfu3LzoCnAELCvfNR7tqYpbRFgPgQCWpkKSf0Zvw2ef1Y-ryZ4p2mG7alhqRRhUUvpB4Xg3gcnTA8H1Ng42nYBuGbbT55fXg1p07gn-6pu1okmOmGhFjoQb8dKSg9NHaKGA8vvskbMVMTMQhn-GpGrraB31JTaMyK58dJJDzwib8gE0vdswHeiP7GHtKmfozdrCixhVulIInLx3FKvYFFwawRdjJfxFQg9yk4m7GHAvjNGGrucItlvY-MHg2z0cIUEBJfAkawM7QZ0MtsvBAw9KO95p1-jQGE9UdlFsQxtckOyGgudDgvl0wof4wmnpekzrAYt6yv-rss8UOPyqlrqp_0Jve5pFdSa0aGODa7vbQAYv0MZT1ZiShb4EIIVWnJ8W0ct4YU7nyh23Ev4dC6A0Zs8qq60P4u4Zma7MYSijmQNfzZ-yeyEqPmGd9pJnJmXTBZjkksyQtdFte4gyG3vfAGz3fEoyZ2IEhza2L2ID2I-YLJycAErJDtBQfBZ0bXALsPhrTIbNF6iWNhQuAxEkzkic0KyB0cyHFLNBzBMd1uDLbYg-eWZ3-FyTiJK6BUtn2dyfuCzE7EAdUE8q490YHgByfY2RqHjPTXFmm6181IeU9ID3fBq2jgUq-1jGTtm6BfCJPu5XYYVOlEv57-qcxkf0sgrGgvT1ZqYj27pqIGF6kG9avsET7akuAjZigcFWZCWk8aYmaV_uB8HxMBgx4iRlOPYTmbH9ZG7stv5eNSLwOW8Pxok8tl-9no94mbibFiO1MBC5mWl2302Jg8i19PaHaR56SKix5TlPPlS9AgBQTHm5DCN4znB8XsYUSniu6EZWxua4qce5mu4kN0nM74QlXOvCHpOzJ1W26hXjMqlHM3rC8KJFyHmc9m5DfK8n6ixta_xpPXMF5Y60T7KWTuar5ZMkuToEVsImK2eI9s2hVaZWQ8WpcHoAW86lZuZHqn41Hg9Z0ZfCGufAcmxxeljTjFaSKPYJ76GXk4ufhimZ_6nNJBBAEVpGkA09c-Okb2W09EeA02bx3vLXktIPa-zEL64G5B9ETFCAX5UjtPp-ipQNiP0GUm5RSs8fSlI6ZzcRVoMPmYffswfTEAwGO2KeHj5lvW56nDgOung35cHsSV854DH8NEJGdpBCxgC-WlFfRomeJuaTnnhyxkb_QnQPIioaJcFqgEaIdgWGjjiKBPgvzegnhMLoPMAw-ew3OffDLXThvYpMvIpcwFRlof4rvNGyNgk8ZhIprIbKWJ69mTbcC2GgrTShjudoTMpo2LoaZA4ZwkY05bnNKP4gkYWfF02wNjfwbu1G1UHs3uz5Pay1OLb4e0g-fvE_erU-qY8TWj4RARG-8m2O1WibMgyc3e8K2UR8h46J9zRhALoOxOykh4JATx3sKOjqx7cFFfr0FKnhyH84r6kVZWaPRs2wE39hLIssFgZQhMyBj_cwGGMp5Gceg_NrT5UwfGbY4azs6o7tkhr1XJFyFIQ_3b9jRfb-uKCAIydmhWfzLAEjiYPfAfQJATkeFubR-A7YIOwHzCfmHrPkgYIRi8bCrg3uYsrk4Ssv99-VudxHOH8OIEdRFvIgPYtyyBi3zJqb94DikRcQztcS_T0GdtjaNvA1Iizy4ypcMOcAufS_mC0]--></g></svg>