<?xml version="1.0" encoding="us-ascii" standalone="no"?><svg xmlns="http://www.w3.org/2000/svg" xmlns:xlink="http://www.w3.org/1999/xlink" contentStyleType="text/css" height="1109px" preserveAspectRatio="none" style="width:1592px;height:1109px;background:#FFFFFF;" version="1.1" viewBox="0 0 1592 1109" width="1592px" zoomAndPan="magnify"><defs/><g><!--cluster node--><g id="cluster_node"><polygon fill="none" points="16,16,26,6,1575,6,1575,1082.06,1565,1092.06,16,1092.06,16,16" style="stroke:#181818;stroke-width:1.0;"/><line style="stroke:#181818;stroke-width:1.0;" x1="1565" x2="1575" y1="16" y2="6"/><line style="stroke:#181818;stroke-width:1.0;" x1="16" x2="1565" y1="16" y2="16"/><line style="stroke:#181818;stroke-width:1.0;" x1="1565" x2="1565" y1="16" y2="1092.06"/><text fill="#000000" font-family="sans-serif" font-size="14" font-weight="bold" lengthAdjust="spacing" textLength="40" x="771.5" y="31.9951">node</text></g><!--cluster SR_config--><g id="cluster_SR_config"><rect fill="none" height="1014.06" rx="2.5" ry="2.5" style="stroke:#181818;stroke-width:1.0;" width="1206" x="40" y="54"/><text fill="#000000" font-family="sans-serif" font-size="14" font-weight="bold" lengthAdjust="spacing" textLength="76" x="605" y="68.9951">SR_config</text></g><!--class link_var_discriptor--><g id="elem_link_var_discriptor"><rect codeLine="3" fill="#F1F1F1" height="107.4844" id="link_var_discriptor" rx="2.5" ry="2.5" style="stroke:#181818;stroke-width:0.5;" width="210" x="169" y="650.01"/><ellipse cx="212.35" cy="679.4553" fill="#F1F1F1" rx="11" ry="11" style="stroke:#181818;stroke-width:1.0;"/><path d="M211.8344,680.0178 Q209.975,679.3147 209.3188,678.5491 Q208.6781,677.7678 208.6781,676.4553 Q208.6781,674.7678 209.7563,673.7991 Q210.8344,672.8303 212.7094,672.8303 Q213.5688,672.8303 214.4125,673.0334 Q215.2719,673.2209 216.1156,673.6116 L216.1156,676.0022 Q215.3344,675.4397 214.5063,675.1584 Q213.6938,674.8616 212.8969,674.8616 Q212.0219,674.8616 211.5375,675.2209 Q211.0688,675.5803 211.0688,676.2366 Q211.0688,676.7522 211.4125,677.0959 Q211.7563,677.4241 212.85,677.8303 L213.9125,678.2366 Q215.3969,678.7834 216.1,679.6897 Q216.8188,680.5959 216.8188,681.9709 Q216.8188,683.8459 215.7094,684.7678 Q214.6,685.6897 212.35,685.6897 Q211.4281,685.6897 210.5063,685.4709 Q209.5844,685.2522 208.725,684.8303 L208.725,682.2991 Q209.6938,682.9866 210.6156,683.3303 Q211.5375,683.6741 212.4281,683.6741 Q213.3344,683.6741 213.8344,683.2678 Q214.3344,682.8459 214.3344,682.1116 Q214.3344,681.5491 213.9906,681.1428 Q213.6625,680.7209 213.0375,680.4709 L211.8344,680.0178 Z " fill="#000000"/><text fill="#000000" font-family="sans-serif" font-size="14" lengthAdjust="spacing" textLength="72" x="254.15" y="668.0051">&#1054;&#1087;&#1080;&#1089;&#1072;&#1085;&#1080;&#1077;</text><text fill="#000000" font-family="sans-serif" font-size="14" lengthAdjust="spacing" textLength="115" x="232.65" y="684.302">&#1082;&#1086;&#1084;&#1084;&#1091;&#1090;&#1080;&#1088;&#1091;&#1077;&#1084;&#1086;&#1081;</text><text fill="#000000" font-family="sans-serif" font-size="14" lengthAdjust="spacing" textLength="91" x="244.65" y="700.5989">&#1087;&#1077;&#1088;&#1077;&#1084;&#1077;&#1085;&#1085;&#1086;&#1081;</text><line style="stroke:#181818;stroke-width:0.5;" x1="170" x2="378" y1="708.9006" y2="708.9006"/><ellipse cx="180" cy="722.5491" fill="none" rx="3" ry="3" style="stroke:#038048;stroke-width:1.0;"/><text fill="#000000" font-family="sans-serif" font-size="14" lengthAdjust="spacing" textLength="184" x="189" y="725.8957">&#1080;&#1085;&#1076;&#1077;&#1082;&#1089;_&#1074;_&#1073;&#1091;&#1092;&#1077;&#1088;&#1077; : size_t</text><ellipse cx="180" cy="738.8459" fill="none" rx="3" ry="3" style="stroke:#038048;stroke-width:1.0;"/><text fill="#000000" font-family="sans-serif" font-size="14" lengthAdjust="spacing" textLength="166" x="189" y="742.1926">&#1079;&#1085;&#1072;&#1095;&#1077;&#1085;&#1080;&#1077;_&#1089;&#1074;&#1103;&#1079;&#1080; : float*</text><line style="stroke:#181818;stroke-width:0.5;" x1="170" x2="378" y1="749.4944" y2="749.4944"/></g><!--class Link_MPI--><g id="elem_Link_MPI"><rect codeLine="8" fill="#F1F1F1" height="390.2344" id="Link_MPI" rx="2.5" ry="2.5" style="stroke:#181818;stroke-width:0.5;" width="435" x="56.5" y="89"/><ellipse cx="216.25" cy="105" fill="#ADD1B2" rx="11" ry="11" style="stroke:#181818;stroke-width:1.0;"/><path d="M219.2188,110.6406 Q218.6406,110.9375 218,111.0781 Q217.3594,111.2344 216.6563,111.2344 Q214.1563,111.2344 212.8281,109.5938 Q211.5156,107.9375 211.5156,104.8125 Q211.5156,101.6875 212.8281,100.0313 Q214.1563,98.375 216.6563,98.375 Q217.3594,98.375 218,98.5313 Q218.6563,98.6875 219.2188,98.9844 L219.2188,101.7031 Q218.5938,101.125 218,100.8594 Q217.4063,100.5781 216.7813,100.5781 Q215.4375,100.5781 214.75,101.6563 Q214.0625,102.7188 214.0625,104.8125 Q214.0625,106.9063 214.75,107.9844 Q215.4375,109.0469 216.7813,109.0469 Q217.4063,109.0469 218,108.7813 Q218.5938,108.5 219.2188,107.9219 L219.2188,110.6406 Z " fill="#000000"/><text fill="#000000" font-family="sans-serif" font-size="14" lengthAdjust="spacing" textLength="107" x="236.75" y="109.8467">&#1050;&#1086;&#1084;&#1084;&#1091;&#1085;&#1080;&#1082;&#1072;&#1090;&#1086;&#1088;</text><line style="stroke:#181818;stroke-width:0.5;" x1="57.5" x2="490.5" y1="121" y2="121"/><rect fill="none" height="6" style="stroke:#C82930;stroke-width:1.0;" width="6" x="64.5" y="131.6484"/><text fill="#000000" font-family="sans-serif" font-size="14" lengthAdjust="spacing" textLength="115" x="76.5" y="137.9951">&#1085;&#1086;&#1084;&#1077;&#1088;_&#1091;&#1079;&#1083;&#1072; : int</text><rect fill="none" height="6" style="stroke:#C82930;stroke-width:1.0;" width="6" x="64.5" y="147.9453"/><text fill="#000000" font-family="sans-serif" font-size="14" lengthAdjust="spacing" textLength="160" x="76.5" y="154.292">&#1089;&#1087;&#1080;&#1089;&#1086;&#1082;_&#1085;&#1072;_&#1087;&#1077;&#1088;&#1077;&#1076;&#1072;&#1095;&#1091; :</text><text fill="#000000" font-family="sans-serif" font-size="14" lengthAdjust="spacing" textLength="392" x="76.5" y="170.5889">std::vector&lt;&#1054;&#1087;&#1080;&#1089;&#1072;&#1085;&#1080;&#1077; &#1082;&#1086;&#1084;&#1084;&#1091;&#1090;&#1080;&#1088;&#1091;&#1077;&#1084;&#1086;&#1081; &#1087;&#1077;&#1088;&#1077;&#1084;&#1077;&#1085;&#1085;&#1086;&#1081;&gt;*</text><rect fill="none" height="6" style="stroke:#C82930;stroke-width:1.0;" width="6" x="64.5" y="180.5391"/><text fill="#000000" font-family="sans-serif" font-size="14" lengthAdjust="spacing" textLength="137" x="76.5" y="186.8857">&#1089;&#1087;&#1080;&#1089;&#1086;&#1082;_&#1085;&#1072;_&#1087;&#1088;&#1080;&#1105;&#1084; :</text><text fill="#000000" font-family="sans-serif" font-size="14" lengthAdjust="spacing" textLength="392" x="76.5" y="203.1826">std::vector&lt;&#1054;&#1087;&#1080;&#1089;&#1072;&#1085;&#1080;&#1077; &#1082;&#1086;&#1084;&#1084;&#1091;&#1090;&#1080;&#1088;&#1091;&#1077;&#1084;&#1086;&#1081; &#1087;&#1077;&#1088;&#1077;&#1084;&#1077;&#1085;&#1085;&#1086;&#1081;&gt;*</text><ellipse cx="67.5" cy="216.1328" fill="none" rx="3" ry="3" style="stroke:#038048;stroke-width:1.0;"/><text fill="#000000" font-family="sans-serif" font-size="14" lengthAdjust="spacing" textLength="245" x="76.5" y="219.4795">&#1088;&#1072;&#1079;&#1084;&#1077;&#1088;_&#1073;&#1091;&#1092;&#1077;&#1088;&#1072;_&#1085;&#1072;_&#1087;&#1077;&#1088;&#1077;&#1076;&#1072;&#1095;&#1091; : int</text><ellipse cx="67.5" cy="232.4297" fill="none" rx="3" ry="3" style="stroke:#038048;stroke-width:1.0;"/><text fill="#000000" font-family="sans-serif" font-size="14" lengthAdjust="spacing" textLength="222" x="76.5" y="235.7764">&#1088;&#1072;&#1079;&#1084;&#1077;&#1088;_&#1073;&#1091;&#1092;&#1077;&#1088;&#1072;_&#1085;&#1072;_&#1087;&#1088;&#1080;&#1105;&#1084; : int</text><ellipse cx="67.5" cy="248.7266" fill="none" rx="3" ry="3" style="stroke:#038048;stroke-width:1.0;"/><text fill="#000000" font-family="sans-serif" font-size="14" lengthAdjust="spacing" textLength="196" x="76.5" y="252.0732">&#1073;&#1091;&#1092;&#1077;&#1088;_&#1085;&#1072;_&#1087;&#1077;&#1088;&#1077;&#1076;&#1072;&#1095;&#1091; : float*</text><ellipse cx="67.5" cy="265.0234" fill="none" rx="3" ry="3" style="stroke:#038048;stroke-width:1.0;"/><text fill="#000000" font-family="sans-serif" font-size="14" lengthAdjust="spacing" textLength="173" x="76.5" y="268.3701">&#1073;&#1091;&#1092;&#1077;&#1088;_&#1085;&#1072;_&#1087;&#1088;&#1080;&#1105;&#1084; : float*</text><line style="stroke:#181818;stroke-width:0.5;" x1="57.5" x2="490.5" y1="275.6719" y2="275.6719"/><ellipse cx="67.5" cy="289.3203" fill="#84BE84" rx="3" ry="3" style="stroke:#038048;stroke-width:1.0;"/><text fill="#000000" font-family="sans-serif" font-size="14" lengthAdjust="spacing" textLength="221" x="76.5" y="292.667">&#1050;&#1086;&#1085;&#1089;&#1090;&#1088;&#1091;&#1082;&#1090;&#1086;&#1088;(&#1085;&#1086;&#1084;&#1077;&#1088;_&#1091;&#1079;&#1083;&#1072; : int)</text><ellipse cx="67.5" cy="305.6172" fill="#84BE84" rx="3" ry="3" style="stroke:#038048;stroke-width:1.0;"/><text fill="#000000" font-family="sans-serif" font-size="14" lengthAdjust="spacing" textLength="99" x="76.5" y="308.9639">&#1044;&#1077;&#1089;&#1090;&#1088;&#1091;&#1082;&#1090;&#1086;&#1088;()</text><ellipse cx="67.5" cy="321.9141" fill="#84BE84" rx="3" ry="3" style="stroke:#038048;stroke-width:1.0;"/><text fill="#000000" font-family="sans-serif" font-size="14" lengthAdjust="spacing" textLength="218" x="76.5" y="325.2607">&#1087;&#1086;&#1083;&#1091;&#1095;&#1077;&#1085;&#1080;&#1077;_&#1085;&#1086;&#1084;&#1077;&#1088;&#1072;_&#1091;&#1079;&#1083;&#1072;() : int</text><ellipse cx="67.5" cy="338.2109" fill="#84BE84" rx="3" ry="3" style="stroke:#038048;stroke-width:1.0;"/><text fill="#000000" font-family="sans-serif" font-size="14" lengthAdjust="spacing" textLength="409" x="76.5" y="341.5576">&#1076;&#1086;&#1073;&#1072;&#1074;&#1083;&#1077;&#1085;&#1080;&#1077;_&#1074;_&#1089;&#1087;&#1080;&#1089;&#1086;&#1082;_&#1085;&#1072;_&#1087;&#1077;&#1088;&#1077;&#1076;&#1072;&#1095;&#1091;(&#1087;&#1077;&#1088;&#1077;&#1084;&#1077;&#1085;&#1085;&#1072;&#1103; : float*,</text><text fill="#000000" font-family="sans-serif" font-size="14" lengthAdjust="spacing" textLength="230" x="76.5" y="357.8545">&#1080;&#1085;&#1076;&#1077;&#1082;&#1089;_&#1074;_&#1073;&#1091;&#1092;&#1077;&#1088;&#1077; : size_t) : void</text><ellipse cx="67.5" cy="370.8047" fill="#84BE84" rx="3" ry="3" style="stroke:#038048;stroke-width:1.0;"/><text fill="#000000" font-family="sans-serif" font-size="14" lengthAdjust="spacing" textLength="386" x="76.5" y="374.1514">&#1076;&#1086;&#1073;&#1072;&#1074;&#1083;&#1077;&#1085;&#1080;&#1077;_&#1074;_&#1089;&#1087;&#1080;&#1089;&#1086;&#1082;_&#1085;&#1072;_&#1087;&#1088;&#1080;&#1105;&#1084;(&#1087;&#1077;&#1088;&#1077;&#1084;&#1077;&#1085;&#1085;&#1072;&#1103; : float*,</text><text fill="#000000" font-family="sans-serif" font-size="14" lengthAdjust="spacing" textLength="230" x="76.5" y="390.4482">&#1080;&#1085;&#1076;&#1077;&#1082;&#1089;_&#1074;_&#1073;&#1091;&#1092;&#1077;&#1088;&#1077; : size_t) : void</text><ellipse cx="67.5" cy="403.3984" fill="#84BE84" rx="3" ry="3" style="stroke:#038048;stroke-width:1.0;"/><text fill="#000000" font-family="sans-serif" font-size="14" lengthAdjust="spacing" textLength="346" x="76.5" y="406.7451">&#1091;&#1089;&#1090;&#1072;&#1085;&#1086;&#1074;&#1082;&#1072;_&#1083;&#1086;&#1082;&#1072;&#1083;&#1100;&#1085;&#1086;&#1075;&#1086;_&#1087;&#1086;&#1088;&#1103;&#1076;&#1082;&#1072;_&#1074;&#1099;&#1076;&#1072;&#1095;&#1080;() : void</text><ellipse cx="67.5" cy="419.6953" fill="#84BE84" rx="3" ry="3" style="stroke:#038048;stroke-width:1.0;"/><text fill="#000000" font-family="sans-serif" font-size="14" lengthAdjust="spacing" textLength="301" x="76.5" y="423.042">&#1079;&#1072;&#1087;&#1086;&#1083;&#1085;&#1077;&#1085;&#1080;&#1077;_&#1073;&#1091;&#1092;&#1077;&#1088;&#1072;_&#1085;&#1072;_&#1087;&#1077;&#1088;&#1077;&#1076;&#1072;&#1095;&#1091;() : void</text><ellipse cx="67.5" cy="435.9922" fill="#84BE84" rx="3" ry="3" style="stroke:#038048;stroke-width:1.0;"/><text fill="#000000" font-family="sans-serif" font-size="14" lengthAdjust="spacing" textLength="278" x="76.5" y="439.3389">&#1079;&#1072;&#1087;&#1086;&#1083;&#1085;&#1077;&#1085;&#1080;&#1077;_&#1073;&#1091;&#1092;&#1077;&#1088;&#1072;_&#1085;&#1072;_&#1087;&#1088;&#1080;&#1105;&#1084;() : void</text><ellipse cx="67.5" cy="452.2891" fill="#84BE84" rx="3" ry="3" style="stroke:#038048;stroke-width:1.0;"/><text fill="#000000" font-family="sans-serif" font-size="14" lengthAdjust="spacing" textLength="296" x="76.5" y="455.6357">&#1074;&#1099;&#1076;&#1077;&#1083;&#1077;&#1085;&#1080;&#1077;_&#1073;&#1091;&#1092;&#1077;&#1088;&#1072;_&#1085;&#1072;_&#1087;&#1077;&#1088;&#1077;&#1076;&#1072;&#1095;&#1091;() : void</text><ellipse cx="67.5" cy="468.5859" fill="#84BE84" rx="3" ry="3" style="stroke:#038048;stroke-width:1.0;"/><text fill="#000000" font-family="sans-serif" font-size="14" lengthAdjust="spacing" textLength="273" x="76.5" y="471.9326">&#1074;&#1099;&#1076;&#1077;&#1083;&#1077;&#1085;&#1080;&#1077;_&#1073;&#1091;&#1092;&#1077;&#1088;&#1072;_&#1085;&#1072;_&#1087;&#1088;&#1080;&#1105;&#1084;() : void</text></g><path d="M526.5,258.98 L526.5,275.1128 L422.5,401.8984 L526.5,283.1128 L526.5,299.2456 A0,0 0 0 0 526.5,299.2456 L703.5,299.2456 A0,0 0 0 0 703.5,299.2456 L703.5,268.98 L693.5,258.98 L526.5,258.98 A0,0 0 0 0 526.5,258.98 " fill="#FEFFDD" style="stroke:#181818;stroke-width:0.5;"/><path d="M693.5,258.98 L693.5,268.98 L703.5,268.98 L693.5,258.98 " fill="#FEFFDD" style="stroke:#181818;stroke-width:0.5;"/><text fill="#000000" font-family="sans-serif" font-size="13" lengthAdjust="spacing" textLength="156" x="532.5" y="276.0469">&#1057;&#1086;&#1088;&#1090;&#1080;&#1088;&#1086;&#1074;&#1082;&#1072; &#1074; &#1087;&#1086;&#1088;&#1103;&#1076;&#1082;&#1077;</text><text fill="#000000" font-family="sans-serif" font-size="13" lengthAdjust="spacing" textLength="156" x="532.5" y="291.1797">&#1074;&#1086;&#1079;&#1088;&#1072;&#1089;&#1090;&#1072;&#1085;&#1080;&#1103; &#1080;&#1085;&#1076;&#1077;&#1082;&#1089;&#1086;&#1074;</text><!--class SR_var_descriptor--><g id="elem_SR_var_descriptor"><rect codeLine="37" fill="#F1F1F1" height="123.7813" id="SR_var_descriptor" rx="2.5" ry="2.5" style="stroke:#181818;stroke-width:0.5;" width="257" x="534.5" y="928.28"/><ellipse cx="613.25" cy="949.5769" fill="#F1F1F1" rx="11" ry="11" style="stroke:#181818;stroke-width:1.0;"/><path d="M612.7344,950.1394 Q610.875,949.4363 610.2188,948.6706 Q609.5781,947.8894 609.5781,946.5769 Q609.5781,944.8894 610.6563,943.9206 Q611.7344,942.9519 613.6094,942.9519 Q614.4688,942.9519 615.3125,943.155 Q616.1719,943.3425 617.0156,943.7331 L617.0156,946.1238 Q616.2344,945.5613 615.4063,945.28 Q614.5938,944.9831 613.7969,944.9831 Q612.9219,944.9831 612.4375,945.3425 Q611.9688,945.7019 611.9688,946.3581 Q611.9688,946.8738 612.3125,947.2175 Q612.6563,947.5456 613.75,947.9519 L614.8125,948.3581 Q616.2969,948.905 617,949.8113 Q617.7188,950.7175 617.7188,952.0925 Q617.7188,953.9675 616.6094,954.8894 Q615.5,955.8113 613.25,955.8113 Q612.3281,955.8113 611.4063,955.5925 Q610.4844,955.3738 609.625,954.9519 L609.625,952.4206 Q610.5938,953.1081 611.5156,953.4519 Q612.4375,953.7956 613.3281,953.7956 Q614.2344,953.7956 614.7344,953.3894 Q615.2344,952.9675 615.2344,952.2331 Q615.2344,951.6706 614.8906,951.2644 Q614.5625,950.8425 613.9375,950.5925 L612.7344,950.1394 Z " fill="#000000"/><text fill="#000000" font-family="sans-serif" font-size="14" lengthAdjust="spacing" textLength="72" x="641.25" y="946.2751">&#1054;&#1087;&#1080;&#1089;&#1072;&#1085;&#1080;&#1077;</text><text fill="#000000" font-family="sans-serif" font-size="14" lengthAdjust="spacing" textLength="91" x="633.75" y="962.572">&#1087;&#1077;&#1088;&#1077;&#1084;&#1077;&#1085;&#1085;&#1086;&#1081;</text><line style="stroke:#181818;stroke-width:0.5;" x1="535.5" x2="790.5" y1="970.8738" y2="970.8738"/><ellipse cx="545.5" cy="984.5222" fill="none" rx="3" ry="3" style="stroke:#038048;stroke-width:1.0;"/><text fill="#000000" font-family="sans-serif" font-size="14" lengthAdjust="spacing" textLength="218" x="554.5" y="987.8689">&#1080;&#1084;&#1103;_&#1087;&#1077;&#1088;&#1077;&#1084;&#1077;&#1085;&#1085;&#1086;&#1081; : const char*</text><ellipse cx="545.5" cy="1000.8191" fill="none" rx="3" ry="3" style="stroke:#038048;stroke-width:1.0;"/><text fill="#000000" font-family="sans-serif" font-size="14" lengthAdjust="spacing" textLength="205" x="554.5" y="1004.1657">&#1080;&#1084;&#1103;_&#1072;&#1083;&#1075;&#1086;&#1088;&#1080;&#1090;&#1084;&#1072; : const char*</text><ellipse cx="545.5" cy="1017.1159" fill="none" rx="3" ry="3" style="stroke:#038048;stroke-width:1.0;"/><text fill="#000000" font-family="sans-serif" font-size="14" lengthAdjust="spacing" textLength="231" x="554.5" y="1020.4626">&#1089;&#1095;&#1105;&#1090;&#1095;&#1080;&#1082;_&#1080;&#1089;&#1087;&#1086;&#1083;&#1100;&#1079;&#1086;&#1074;&#1072;&#1085;&#1080;&#1081; : size_t</text><ellipse cx="545.5" cy="1033.4128" fill="none" rx="3" ry="3" style="stroke:#038048;stroke-width:1.0;"/><text fill="#000000" font-family="sans-serif" font-size="14" lengthAdjust="spacing" textLength="166" x="554.5" y="1036.7595">&#1079;&#1085;&#1072;&#1095;&#1077;&#1085;&#1080;&#1077;_&#1089;&#1074;&#1103;&#1079;&#1080; : float*</text><line style="stroke:#181818;stroke-width:0.5;" x1="535.5" x2="790.5" y1="1044.0613" y2="1044.0613"/></g><!--class SR_var_list--><g id="elem_SR_var_list"><rect codeLine="44" fill="#F1F1F1" height="329.0469" id="SR_var_list" rx="2.5" ry="2.5" style="stroke:#181818;stroke-width:0.5;" width="404" x="584" y="539.23"/><ellipse cx="741.25" cy="555.23" fill="#ADD1B2" rx="11" ry="11" style="stroke:#181818;stroke-width:1.0;"/><path d="M744.2188,560.8706 Q743.6406,561.1675 743,561.3081 Q742.3594,561.4644 741.6563,561.4644 Q739.1563,561.4644 737.8281,559.8237 Q736.5156,558.1675 736.5156,555.0425 Q736.5156,551.9175 737.8281,550.2612 Q739.1563,548.605 741.6563,548.605 Q742.3594,548.605 743,548.7612 Q743.6563,548.9175 744.2188,549.2144 L744.2188,551.9331 Q743.5938,551.355 743,551.0894 Q742.4063,550.8081 741.7813,550.8081 Q740.4375,550.8081 739.75,551.8862 Q739.0625,552.9487 739.0625,555.0425 Q739.0625,557.1362 739.75,558.2144 Q740.4375,559.2769 741.7813,559.2769 Q742.4063,559.2769 743,559.0112 Q743.5938,558.73 744.2188,558.1519 L744.2188,560.8706 Z " fill="#000000"/><text fill="#000000" font-family="sans-serif" font-size="14" lengthAdjust="spacing" textLength="81" x="761.75" y="560.0767">&#1055;&#1086;&#1089;&#1088;&#1077;&#1076;&#1085;&#1080;&#1082;</text><line style="stroke:#181818;stroke-width:0.5;" x1="585" x2="987" y1="571.23" y2="571.23"/><rect fill="none" height="6" style="stroke:#C82930;stroke-width:1.0;" width="6" x="592" y="581.8784"/><text fill="#000000" font-family="sans-serif" font-size="14" lengthAdjust="spacing" textLength="118" x="604" y="588.2251">&#1089;&#1087;&#1080;&#1089;&#1086;&#1082;_&#1074;&#1093;&#1086;&#1076;&#1086;&#1074; :</text><text fill="#000000" font-family="sans-serif" font-size="14" lengthAdjust="spacing" textLength="273" x="604" y="604.522">std::vector&lt;&#1054;&#1087;&#1080;&#1089;&#1072;&#1085;&#1080;&#1077; &#1087;&#1077;&#1088;&#1077;&#1084;&#1077;&#1085;&#1085;&#1086;&#1081;&gt;*</text><rect fill="none" height="6" style="stroke:#C82930;stroke-width:1.0;" width="6" x="592" y="614.4722"/><text fill="#000000" font-family="sans-serif" font-size="14" lengthAdjust="spacing" textLength="129" x="604" y="620.8189">&#1089;&#1087;&#1080;&#1089;&#1086;&#1082;_&#1074;&#1099;&#1093;&#1086;&#1076;&#1086;&#1074; :</text><text fill="#000000" font-family="sans-serif" font-size="14" lengthAdjust="spacing" textLength="273" x="604" y="637.1157">std::vector&lt;&#1054;&#1087;&#1080;&#1089;&#1072;&#1085;&#1080;&#1077; &#1087;&#1077;&#1088;&#1077;&#1084;&#1077;&#1085;&#1085;&#1086;&#1081;&gt;*</text><rect fill="none" height="6" style="stroke:#C82930;stroke-width:1.0;" width="6" x="592" y="647.0659"/><text fill="#000000" font-family="sans-serif" font-size="14" lengthAdjust="spacing" textLength="233" x="604" y="653.4126">&#1084;&#1072;&#1089;&#1089;&#1080;&#1074;_&#1079;&#1085;&#1072;&#1095;&#1077;&#1085;&#1080;&#1081;_&#1089;&#1074;&#1103;&#1079;&#1077;&#1081; : float*</text><text fill="#000000" font-family="sans-serif" font-size="14" lengthAdjust="spacing" textLength="4" x="604" y="669.7095">&#160;</text><rect fill="none" height="6" style="stroke:#C82930;stroke-width:1.0;" width="6" x="592" y="679.6597"/><text fill="#000000" font-family="sans-serif" font-size="14" lengthAdjust="spacing" textLength="245" x="604" y="686.0064">&#1089;&#1087;&#1080;&#1089;&#1086;&#1082;_&#1090;&#1088;&#1077;&#1073;&#1091;&#1077;&#1084;&#1099;&#1093;_&#1087;&#1077;&#1088;&#1077;&#1084;&#1077;&#1085;&#1085;&#1099;&#1093; :</text><text fill="#000000" font-family="sans-serif" font-size="14" lengthAdjust="spacing" textLength="273" x="604" y="702.3032">std::vector&lt;&#1054;&#1087;&#1080;&#1089;&#1072;&#1085;&#1080;&#1077; &#1087;&#1077;&#1088;&#1077;&#1084;&#1077;&#1085;&#1085;&#1086;&#1081;&gt;*</text><rect fill="none" height="6" style="stroke:#C82930;stroke-width:1.0;" width="6" x="592" y="712.2534"/><text fill="#000000" font-family="sans-serif" font-size="14" lengthAdjust="spacing" textLength="320" x="604" y="718.6001">&#1084;&#1072;&#1089;&#1089;&#1080;&#1074;_&#1079;&#1085;&#1072;&#1095;&#1077;&#1085;&#1080;&#1081;_&#1090;&#1088;&#1077;&#1073;&#1091;&#1077;&#1084;&#1099;&#1093;_&#1089;&#1074;&#1103;&#1079;&#1077;&#1081; : float*</text><line style="stroke:#181818;stroke-width:0.5;" x1="585" x2="987" y1="725.9019" y2="725.9019"/><ellipse cx="595" cy="739.5503" fill="#84BE84" rx="3" ry="3" style="stroke:#038048;stroke-width:1.0;"/><text fill="#000000" font-family="sans-serif" font-size="14" lengthAdjust="spacing" textLength="106" x="604" y="742.897">&#1050;&#1086;&#1085;&#1089;&#1090;&#1088;&#1091;&#1082;&#1090;&#1086;&#1088;()</text><ellipse cx="595" cy="755.8472" fill="#84BE84" rx="3" ry="3" style="stroke:#038048;stroke-width:1.0;"/><text fill="#000000" font-family="sans-serif" font-size="14" lengthAdjust="spacing" textLength="99" x="604" y="759.1939">&#1044;&#1077;&#1089;&#1090;&#1088;&#1091;&#1082;&#1090;&#1086;&#1088;()</text><ellipse cx="595" cy="792.4409" fill="#84BE84" rx="3" ry="3" style="stroke:#038048;stroke-width:1.0;"/><text fill="#000000" font-family="sans-serif" font-size="14" lengthAdjust="spacing" textLength="367" x="604" y="795.7876">&#1088;&#1077;&#1075;&#1080;&#1089;&#1090;&#1088;&#1072;&#1094;&#1080;&#1103;_&#1074;&#1093;&#1086;&#1076;&#1086;&#1074;(&#1080;&#1084;&#1103;_&#1072;&#1083;&#1075;&#1086;&#1088;&#1080;&#1090;&#1084;&#1072; : const char*,</text><text fill="#000000" font-family="sans-serif" font-size="14" lengthAdjust="spacing" textLength="313" x="604" y="812.0845">&#1080;&#1084;&#1103;_&#1074;&#1093;&#1086;&#1076;&#1072; : const char*, &#1074;&#1093;&#1086;&#1076; : float**) : void</text><ellipse cx="595" cy="825.0347" fill="#84BE84" rx="3" ry="3" style="stroke:#038048;stroke-width:1.0;"/><text fill="#000000" font-family="sans-serif" font-size="14" lengthAdjust="spacing" textLength="378" x="604" y="828.3814">&#1088;&#1077;&#1075;&#1080;&#1089;&#1090;&#1088;&#1072;&#1094;&#1080;&#1103;_&#1074;&#1099;&#1093;&#1086;&#1076;&#1086;&#1074;(&#1080;&#1084;&#1103;_&#1072;&#1083;&#1075;&#1086;&#1088;&#1080;&#1090;&#1084;&#1072; : const char*,</text><text fill="#000000" font-family="sans-serif" font-size="14" lengthAdjust="spacing" textLength="335" x="604" y="844.6782">&#1080;&#1084;&#1103;_&#1074;&#1099;&#1093;&#1086;&#1076;&#1072; : const char*, &#1074;&#1099;&#1093;&#1086;&#1076; : float**) : void</text><ellipse cx="595" cy="857.6284" fill="#84BE84" rx="3" ry="3" style="stroke:#038048;stroke-width:1.0;"/><text fill="#000000" font-family="sans-serif" font-size="14" lengthAdjust="spacing" textLength="178" x="604" y="860.9751">&#1089;&#1086;&#1079;&#1076;&#1072;&#1085;&#1080;&#1077;_&#1089;&#1074;&#1103;&#1079;&#1077;&#1081;() : void</text><line style="stroke:#181818;stroke-width:1.0;stroke-dasharray:1.0,2.0;" x1="585" x2="680.5" y1="774.6441" y2="774.6441"/><text fill="#000000" font-family="sans-serif" font-size="14" lengthAdjust="spacing" textLength="211" x="680.5" y="778.9907">&#1055;&#1088;&#1086;&#1095;&#1080;&#1077; &#1089;&#1083;&#1091;&#1078;&#1077;&#1073;&#1085;&#1099;&#1077; &#1092;&#1091;&#1085;&#1082;&#1094;&#1080;&#1080;</text><line style="stroke:#181818;stroke-width:1.0;stroke-dasharray:1.0,2.0;" x1="891.5" x2="987" y1="774.6441" y2="774.6441"/></g><g id="elem_GMN10"><path d="M826,962.47 L826,1017.8684 A0,0 0 0 0 826,1017.8684 L990,1017.8684 A0,0 0 0 0 990,1017.8684 L990,972.47 L980,962.47 L900.52,962.47 L856.26,868.55 L892.52,962.47 L826,962.47 A0,0 0 0 0 826,962.47 " fill="#FEFFDD" style="stroke:#181818;stroke-width:0.5;"/><path d="M980,962.47 L980,972.47 L990,972.47 L980,962.47 " fill="#FEFFDD" style="stroke:#181818;stroke-width:0.5;"/><text fill="#000000" font-family="sans-serif" font-size="13" lengthAdjust="spacing" textLength="143" x="832" y="979.5369">&#1055;&#1086;&#1089;&#1088;&#1077;&#1076;&#1085;&#1080;&#1082; &#1079;&#1072;&#1074;&#1077;&#1076;&#1091;&#1077;&#1090;</text><text fill="#000000" font-family="sans-serif" font-size="13" lengthAdjust="spacing" textLength="129" x="832" y="994.6697">&#1087;&#1086;&#1088;&#1090;&#1072;&#1084;&#1080; &#1080; &#1089;&#1074;&#1103;&#1079;&#1103;&#1084;&#1080;</text><text fill="#000000" font-family="sans-serif" font-size="13" lengthAdjust="spacing" textLength="115" x="832" y="1009.8025">&#1074;&#1089;&#1077;&#1093; &#1072;&#1083;&#1075;&#1086;&#1088;&#1080;&#1090;&#1084;&#1086;&#1074;</text></g><path d="M1022.5,671.06 L1022.5,694.7592 L782,856.1284 L1022.5,702.7592 L1022.5,726.4584 A0,0 0 0 0 1022.5,726.4584 L1229.5,726.4584 A0,0 0 0 0 1229.5,726.4584 L1229.5,681.06 L1219.5,671.06 L1022.5,671.06 A0,0 0 0 0 1022.5,671.06 " fill="#FEFFDD" style="stroke:#181818;stroke-width:0.5;"/><path d="M1219.5,671.06 L1219.5,681.06 L1229.5,681.06 L1219.5,671.06 " fill="#FEFFDD" style="stroke:#181818;stroke-width:0.5;"/><text fill="#000000" font-family="sans-serif" font-size="13" lengthAdjust="spacing" textLength="131" x="1028.5" y="688.1269">&#1042;&#1099;&#1076;&#1077;&#1083;&#1077;&#1085;&#1080;&#1077; &#1087;&#1072;&#1084;&#1103;&#1090;&#1080;</text><text fill="#000000" font-family="sans-serif" font-size="13" lengthAdjust="spacing" textLength="186" x="1028.5" y="703.2597">&#1087;&#1086;&#1076; &#1074;&#1099;&#1093;&#1086;&#1076;&#1085;&#1099;&#1077; &#1087;&#1077;&#1088;&#1077;&#1084;&#1077;&#1085;&#1085;&#1099;&#1077;</text><text fill="#000000" font-family="sans-serif" font-size="13" lengthAdjust="spacing" textLength="183" x="1028.5" y="718.3925">&#1080; &#1089;&#1074;&#1103;&#1079;&#1099;&#1074;&#1072;&#1085;&#1080;&#1077; &#1089;&#1086; &#1074;&#1093;&#1086;&#1076;&#1085;&#1099;&#1084;&#1080;</text><!--class SR_Settings--><g id="elem_SR_Settings"><rect codeLine="71" fill="#F1F1F1" height="113.1875" id="SR_Settings" rx="2.5" ry="2.5" style="stroke:#181818;stroke-width:0.5;" width="476" x="746" y="227.61"/><ellipse cx="940.25" cy="243.61" fill="#ADD1B2" rx="11" ry="11" style="stroke:#181818;stroke-width:1.0;"/><path d="M943.2188,249.2506 Q942.6406,249.5475 942,249.6881 Q941.3594,249.8444 940.6563,249.8444 Q938.1563,249.8444 936.8281,248.2037 Q935.5156,246.5475 935.5156,243.4225 Q935.5156,240.2975 936.8281,238.6412 Q938.1563,236.985 940.6563,236.985 Q941.3594,236.985 942,237.1412 Q942.6563,237.2975 943.2188,237.5944 L943.2188,240.3131 Q942.5938,239.735 942,239.4694 Q941.4063,239.1881 940.7813,239.1881 Q939.4375,239.1881 938.75,240.2662 Q938.0625,241.3287 938.0625,243.4225 Q938.0625,245.5162 938.75,246.5944 Q939.4375,247.6569 940.7813,247.6569 Q941.4063,247.6569 942,247.3912 Q942.5938,247.11 943.2188,246.5319 L943.2188,249.2506 Z " fill="#000000"/><text fill="#000000" font-family="sans-serif" font-size="14" lengthAdjust="spacing" textLength="79" x="960.75" y="248.4567">&#1053;&#1072;&#1089;&#1090;&#1088;&#1086;&#1081;&#1082;&#1080;</text><line style="stroke:#181818;stroke-width:0.5;" x1="747" x2="1221" y1="259.61" y2="259.61"/><ellipse cx="757" cy="273.2584" fill="none" rx="3" ry="3" style="stroke:#038048;stroke-width:1.0;"/><text fill="#000000" font-family="sans-serif" font-size="14" lengthAdjust="spacing" textLength="335" x="766" y="276.6051">&#1089;&#1087;&#1080;&#1089;&#1086;&#1082;_&#1083;&#1086;&#1082;&#1072;&#1083;&#1100;&#1085;&#1099;&#1093;_&#1087;&#1077;&#1088;&#1077;&#1084;&#1077;&#1085;&#1085;&#1099;&#1093; : &#1055;&#1086;&#1089;&#1088;&#1077;&#1076;&#1085;&#1080;&#1082;*</text><line style="stroke:#181818;stroke-width:0.5;" x1="747" x2="1221" y1="283.9069" y2="283.9069"/><ellipse cx="757" cy="297.5553" fill="#84BE84" rx="3" ry="3" style="stroke:#038048;stroke-width:1.0;"/><text fill="#000000" font-family="sans-serif" font-size="14" lengthAdjust="spacing" textLength="106" x="766" y="300.902">&#1050;&#1086;&#1085;&#1089;&#1090;&#1088;&#1091;&#1082;&#1090;&#1086;&#1088;()</text><ellipse cx="757" cy="313.8522" fill="#84BE84" rx="3" ry="3" style="stroke:#038048;stroke-width:1.0;"/><text fill="#000000" font-family="sans-serif" font-size="14" lengthAdjust="spacing" textLength="99" x="766" y="317.1989">&#1044;&#1077;&#1089;&#1090;&#1088;&#1091;&#1082;&#1090;&#1086;&#1088;()</text><ellipse cx="757" cy="330.1491" fill="#84BE84" rx="3" ry="3" style="stroke:#038048;stroke-width:1.0;"/><text fill="#000000" font-family="sans-serif" font-size="14" lengthAdjust="spacing" textLength="450" x="766" y="333.4957">&#1087;&#1086;&#1080;&#1089;&#1082;_&#1072;&#1083;&#1075;&#1086;&#1088;&#1080;&#1090;&#1084;&#1086;&#1074;(&#1089;&#1087;&#1080;&#1089;&#1086;&#1082;_&#1072;&#1083;&#1075;&#1086;&#1088;&#1080;&#1090;&#1084;&#1086;&#1074; : &#1040;&#1083;&#1075;&#1086;&#1088;&#1080;&#1090;&#1084;***) : size_t</text></g><!--link Link_MPI to link_var_discriptor--><g id="link_Link_MPI_link_var_discriptor"><path codeLine="184" d="M274,479.57 C274,542.14 274,600.44 274,643.86 " fill="none" id="Link_MPI-to-link_var_discriptor" style="stroke:#181818;stroke-width:1.0;stroke-dasharray:7.0,7.0;"/><polygon fill="#181818" points="274,649.86,278,640.86,274,644.86,270,640.86,274,649.86" style="stroke:#181818;stroke-width:1.0;"/></g><!--link SR_var_list to SR_var_descriptor--><g id="link_SR_var_list_SR_var_descriptor"><path codeLine="186" d="M715.16,868.55 C706.03,889.67 699.5613,904.6228 691.8213,922.5228 " fill="none" id="SR_var_list-to-SR_var_descriptor" style="stroke:#181818;stroke-width:1.0;stroke-dasharray:7.0,7.0;"/><polygon fill="#181818" points="689.44,928.03,696.6835,921.3567,691.4244,923.4407,689.3405,918.1816,689.44,928.03" style="stroke:#181818;stroke-width:1.0;"/></g><!--link SR_Settings to SR_var_list--><g id="link_SR_Settings_SR_var_list"><path codeLine="188" d="M950.6997,355.3533 C926.6797,406.0233 898.68,465.0783 866.2,533.5983 " fill="none" id="SR_Settings-SR_var_list" style="stroke:#181818;stroke-width:1.0;"/><polygon fill="#181818" points="955.84,344.51,949.6554,348.2182,950.6997,355.3533,956.8843,351.6451,955.84,344.51" style="stroke:#181818;stroke-width:1.0;"/><polygon fill="#181818" points="863.63,539.02,871.0995,532.6008,865.7717,534.5019,863.8705,529.1741,863.63,539.02" style="stroke:#181818;stroke-width:1.0;"/><text fill="#000000" font-family="sans-serif" font-size="13" lengthAdjust="spacing" textLength="8" x="858.9664" y="528.2856">1</text></g><!--SRC=[lLhTQXj75BxtKmoEBnGbKjDRONnVQ4j9RWkBBCkEYA8rqiRGkWRBSUE2IXA7Gg7GEg4l82lUUlNhLvXzevvpPdTsPdPsjNAS64AarPmpvs- -yysHzkkDP_Mz9kkuEqsskVaz_BUrnGxN6FpjHvyzUUmqtCvkQmyMF6usl7fdhushDf8FX03-zRpkYuR7rla__8O7OPyF-Pm7tF-nmoTymMTy5huCJ-2Ju_0bz-7zWe_XinlkXyVqteVrStowpkezrcvrdZa7zQwpq-erkgrzp-qgc-7V0mRgv_mA12TXt-4ZXr_25gT28QknNkldfkEPCjSWCmpFQ3impm5BH-4RU1o0o6xRhNjbAN8aNyaNZNQzrmCl_ufz8ZKJK7d25-4nsVujslxT3z-m3VbADxt2oDCPckg0Yci-vKFOljNnZ7LWdOZcWaySjDoH4Rj2DyAN8AR9zBoTMkq0ikLsDyrSiEnKC5icjie5p06X83pdCrRxKdOyOB1W254J0LJIFioCaHdQ0ZeInopIYK3cbaOnPSafsrWa7CTKW9Kt3_lX2OLj8kgkb5bGzqtvFs2HAPrQT0FQfc1fSawI3S3gU8lIVNjmhc3j9OHt18kaWf6pl9fBgVGFmpSoCW-rVGeTVpJmm6tjV8A5SOA-b6sm4l93PsK1zatGY2aQ18-cuU_q-2DVOEmWTu1TLsBDA1o8CFAWbENsDUYWt88MwVRIy_F9wcG8inG9stqr6RUtgfYoR9iIsE-uNfDrMtjFFURkIbolrUuWHNgvVA1rX8MnHl23QVA-BZA2XTVea3GbW79K2myrIPbcPuVSIRUqhCxDSjepC01gpatPd3VIZopzUXQ-SMnA8GN0A7eUQpojTyiPSX1RZ2ebxWIaXxbI49Qpy1o0xWmRj4EU2LZx7UeMWopy77zkgd019lUZmYMoe4QmtGBp3tFRx2Zy5LuWO8rMQ_QhTtIepy-v6UOCGj472O14FRpZ9Bm-vIGAS9wzsCLWzQMW3sXxghZmuHTt96sMtRVRDFfRzFDgbV4B11Ow2Zx647ex_mzjn0ZXerDYifFm5Qm8G29DbdmuUu7O2RnzXMYZrMQfu35zoCnEELCrfLR7dyYmbRFwPgQDWpkqSf1Zvw2efLY-rwZ4H1OeZwNzQDlrFFSvDYGLGsei3JIYGO_m0TPYU4A8BZhD47mEm2yMxmt_u0ci6C4J7qvDAaHgEz4xes88DCSyx_IelZCxDHw_8OOQUw6HWXkAhP82KRhf4szsIiN7WOHzEWOBMLqaDrFQSdQ_Z77zRz5wgMEFeJy7CQu_QNfUgxFNevuetnocYq11Neqzv25PEijV34UYUm7QF75irL7IVRAiG0VUwe_BufWOBLZK_D6QDf2ej_USxNglQSuZvFCanlLje3LreZN6Vd6M6lLsmzdlkWqnpv3lz3pTC_A4E73EvuvaW4Z39cY_qbGKN31QXw4kLqk48VaQf446JRYLEJawLZPcS2Vc35Oqw44C1m6AEH4z9XvedR3ScboUulMNVtH8veJev9mEvWcnmstNRUSTotls6wXI3u0d9UtjC6ah3oEhyrkM82N9XSGtcOeVQxIsgNjPb-Iu0PRIdTdQDNKhLznheEuskAlzxXOLiuY71S1Br7_r9ct5z6YmmbBTHsnv6EFR4LDht7ubJl4_dUp1dbEyEOw8BGG4rDYKnrHy8xfMXlqq7H0CGg6AHzdi885NyFQS1cyBkWsFuPQfsRF04kLJl7mkvH_jvcvgWrgjK6gNKO-8RKWyckHHWpnZik58j-S2FZgccFfeE0E1cwWYVCmFFZQgNKoTVHcZrz3iBg7AXESGsw-ezAuY7v7XZDTrPi__X2rn8e4NvJvMWHZp1I8BWen0aWY589BCG5ISKSp2VlLMiSa5KTrCeuUZcRwOu5wIw133OwA1ZnSTp2M5I5AzS234HOeXYjFmjS34S63tmw0Xw8NNjdqf0ayFKppnGqo7ALaGKyb0lBRZ_RJVZ6N56yim89ewq3S9DPRrtKEvdFwImM2eA9sYhVaZWQ8apbHoAWe6FZwZH4n41ne9H0HuZ4kA6jkE-sAxtJHrd94PKnoaOJcEwIpCOtvijymoolcyb3YWoHj25neK88YA1b3AlgVAibrwsLDFJbGX02evUvge4l5rwsrEdrdRsnWuY7T1ssN4SilIBdxCUl5RZX3IJprIQU2wGOAKuHjLlvW56nDgOung35bHsSSe54FH8ND18Jxb6RUC-WlF9LpOKDyaPnnxyxkbzrcrorOaa3cFqgEaIdgWGijiLBPgrzegfhMLgPMQw-e-3OfvDLZThrYpMrIpc-FRlof5rvtG-Ngk8phJptIbKeJ69njbXC2mgrVShjudsTMps2KmIHd2nrrHaAouBoCZLNnG8Bm0V2-5xXK8T16BxTDJWUGfAYn10BheUzhvD_hQHrAqMp1Y4qBZFGgGOOXKwkB5r460EjaKm1emVMwnbiB6R7lqO2TMl8UzZLwcSyrvzEi0kiUy4YDDPBdwvW3AUWVHoPDRgMonzKVLQdbTVfkd2rWuKvc4lbvNHtkfNPOm9dLZyphqLkytu7X6fjVapqcgrItRBsJ8UJaHnaMfB-LeYPn9ggx5Ske2kh_aJVmGQA9zD9yItf7bYshf9XmousfG_4ejpf6DkQI_lyJreaAaiL5IDd-fLCpJUM7U3rHuoa23hBdvMhVvt3sGL1_UzY0RJUMtL795FCrKHMAp_WS0]--></g></svg>