<?xml version="1.0" encoding="us-ascii" standalone="no"?><svg xmlns="http://www.w3.org/2000/svg" xmlns:xlink="http://www.w3.org/1999/xlink" contentStyleType="text/css" height="348px" preserveAspectRatio="none" style="width:1031px;height:348px;background:#FFFFFF;" version="1.1" viewBox="0 0 1031 348" width="1031px" zoomAndPan="magnify"><defs/><g><!--cluster node--><g id="cluster_node"><polygon fill="none" points="16,16,26,6,1014,6,1014,321,1004,331,16,331,16,16" style="stroke:#181818;stroke-width:1.0;"/><line style="stroke:#181818;stroke-width:1.0;" x1="1004" x2="1014" y1="16" y2="6"/><line style="stroke:#181818;stroke-width:1.0;" x1="16" x2="1004" y1="16" y2="16"/><line style="stroke:#181818;stroke-width:1.0;" x1="1004" x2="1004" y1="16" y2="331"/><text fill="#000000" font-family="sans-serif" font-size="14" font-weight="bold" lengthAdjust="spacing" textLength="40" x="491" y="31.9951">node</text></g><!--cluster SR_ctl--><g id="cluster_SR_ctl"><rect fill="none" height="253" rx="2.5" ry="2.5" style="stroke:#181818;stroke-width:1.0;" width="645" x="40" y="54"/><text fill="#000000" font-family="sans-serif" font-size="14" font-weight="bold" lengthAdjust="spacing" textLength="46" x="339.5" y="68.9951">SR_ctl</text></g><!--class SR_ctl_type--><g id="elem_SR_ctl_type"><rect codeLine="120" fill="#F1F1F1" height="194.6719" id="SR_ctl_type" rx="2.5" ry="2.5" style="stroke:#181818;stroke-width:0.5;" width="304" x="357" y="93"/><ellipse cx="464.75" cy="109" fill="#ADD1B2" rx="11" ry="11" style="stroke:#181818;stroke-width:1.0;"/><path d="M467.7188,114.6406 Q467.1406,114.9375 466.5,115.0781 Q465.8594,115.2344 465.1563,115.2344 Q462.6563,115.2344 461.3281,113.5938 Q460.0156,111.9375 460.0156,108.8125 Q460.0156,105.6875 461.3281,104.0313 Q462.6563,102.375 465.1563,102.375 Q465.8594,102.375 466.5,102.5313 Q467.1563,102.6875 467.7188,102.9844 L467.7188,105.7031 Q467.0938,105.125 466.5,104.8594 Q465.9063,104.5781 465.2813,104.5781 Q463.9375,104.5781 463.25,105.6563 Q462.5625,106.7188 462.5625,108.8125 Q462.5625,110.9063 463.25,111.9844 Q463.9375,113.0469 465.2813,113.0469 Q465.9063,113.0469 466.5,112.7813 Q467.0938,112.5 467.7188,111.9219 L467.7188,114.6406 Z " fill="#000000"/><text fill="#000000" font-family="sans-serif" font-size="14" lengthAdjust="spacing" textLength="80" x="485.25" y="113.8467">&#1057;&#1086;&#1079;&#1076;&#1072;&#1090;&#1077;&#1083;&#1100;</text><line style="stroke:#181818;stroke-width:0.5;" x1="358" x2="660" y1="125" y2="125"/><rect fill="none" height="6" style="stroke:#C82930;stroke-width:1.0;" width="6" x="365" y="135.6484"/><text fill="#000000" font-family="sans-serif" font-size="14" lengthAdjust="spacing" textLength="206" x="377" y="141.9951">&#1089;&#1074;&#1103;&#1079;&#1080;_MPI : &#1050;&#1086;&#1084;&#1084;&#1091;&#1085;&#1080;&#1082;&#1072;&#1090;&#1086;&#1088;**</text><rect fill="none" height="6" style="stroke:#C82930;stroke-width:1.0;" width="6" x="365" y="151.9453"/><text fill="#000000" font-family="sans-serif" font-size="14" lengthAdjust="spacing" textLength="177" x="377" y="158.292">&#1085;&#1072;&#1089;&#1090;&#1088;&#1086;&#1081;&#1082;&#1080; : &#1053;&#1072;&#1089;&#1090;&#1088;&#1086;&#1081;&#1082;&#1080;*</text><rect fill="none" height="6" style="stroke:#C82930;stroke-width:1.0;" width="6" x="365" y="168.2422"/><text fill="#000000" font-family="sans-serif" font-size="14" lengthAdjust="spacing" textLength="243" x="377" y="174.5889">&#1089;&#1087;&#1080;&#1089;&#1086;&#1082;_&#1072;&#1083;&#1075;&#1086;&#1088;&#1080;&#1090;&#1084;&#1086;&#1074; : &#1040;&#1083;&#1075;&#1086;&#1088;&#1080;&#1090;&#1084;**</text><rect fill="none" height="6" style="stroke:#C82930;stroke-width:1.0;" width="6" x="365" y="184.5391"/><text fill="#000000" font-family="sans-serif" font-size="14" lengthAdjust="spacing" textLength="259" x="377" y="190.8857">&#1092;&#1072;&#1082;&#1090;&#1080;&#1095;&#1077;&#1089;&#1082;&#1086;&#1077;_&#1074;&#1088;&#1077;&#1084;&#1103;_&#1090;&#1072;&#1082;&#1090;&#1072; : double</text><rect fill="none" height="6" style="stroke:#C82930;stroke-width:1.0;" width="6" x="365" y="200.8359"/><text fill="#000000" font-family="sans-serif" font-size="14" lengthAdjust="spacing" textLength="278" x="377" y="207.1826">&#1095;&#1080;&#1089;&#1083;&#1086;_&#1085;&#1072;&#1081;&#1076;&#1077;&#1085;&#1085;&#1099;&#1093;_&#1072;&#1083;&#1075;&#1086;&#1088;&#1080;&#1090;&#1084;&#1086;&#1074; : size_t</text><line style="stroke:#181818;stroke-width:0.5;" x1="358" x2="660" y1="214.4844" y2="214.4844"/><ellipse cx="368" cy="228.1328" fill="#84BE84" rx="3" ry="3" style="stroke:#038048;stroke-width:1.0;"/><text fill="#000000" font-family="sans-serif" font-size="14" lengthAdjust="spacing" textLength="106" x="377" y="231.4795">&#1050;&#1086;&#1085;&#1089;&#1090;&#1088;&#1091;&#1082;&#1090;&#1086;&#1088;()</text><ellipse cx="368" cy="244.4297" fill="#84BE84" rx="3" ry="3" style="stroke:#038048;stroke-width:1.0;"/><text fill="#000000" font-family="sans-serif" font-size="14" lengthAdjust="spacing" textLength="99" x="377" y="247.7764">&#1044;&#1077;&#1089;&#1090;&#1088;&#1091;&#1082;&#1090;&#1086;&#1088;()</text><ellipse cx="368" cy="260.7266" fill="#84BE84" rx="3" ry="3" style="stroke:#038048;stroke-width:1.0;"/><text fill="#000000" font-family="sans-serif" font-size="14" lengthAdjust="spacing" textLength="166" x="377" y="264.0732">&#1080;&#1085;&#1080;&#1094;&#1080;&#1072;&#1083;&#1080;&#1079;&#1072;&#1094;&#1080;&#1103;() : void</text><ellipse cx="368" cy="277.0234" fill="#84BE84" rx="3" ry="3" style="stroke:#038048;stroke-width:1.0;"/><text fill="#000000" font-family="sans-serif" font-size="14" lengthAdjust="spacing" textLength="103" x="377" y="280.3701">&#1088;&#1072;&#1073;&#1086;&#1090;&#1072;() : void</text></g><path d="M55.5,132.17 L55.5,187.5684 A0,0 0 0 0 55.5,187.5684 L273.5,187.5684 A0,0 0 0 0 273.5,187.5684 L273.5,163.8692 L361,259.2266 L273.5,155.8692 L273.5,142.17 L263.5,132.17 L55.5,132.17 A0,0 0 0 0 55.5,132.17 " fill="#FEFFDD" style="stroke:#181818;stroke-width:0.5;"/><path d="M263.5,132.17 L263.5,142.17 L273.5,142.17 L263.5,132.17 " fill="#FEFFDD" style="stroke:#181818;stroke-width:0.5;"/><text fill="#000000" font-family="sans-serif" font-size="13" lengthAdjust="spacing" textLength="129" x="61.5" y="149.2369">&#1055;&#1086;&#1080;&#1089;&#1082; &#1072;&#1083;&#1075;&#1086;&#1088;&#1080;&#1090;&#1084;&#1086;&#1074;,</text><text fill="#000000" font-family="sans-serif" font-size="13" lengthAdjust="spacing" textLength="193" x="61.5" y="164.3697">&#1088;&#1077;&#1075;&#1080;&#1089;&#1090;&#1088;&#1072;&#1094;&#1080;&#1103; &#1080;&#1093; &#1087;&#1077;&#1088;&#1077;&#1084;&#1077;&#1085;&#1085;&#1099;&#1093;</text><text fill="#000000" font-family="sans-serif" font-size="13" lengthAdjust="spacing" textLength="126" x="61.5" y="179.5025">&#1080; &#1089;&#1086;&#1079;&#1076;&#1072;&#1085;&#1080;&#1077; &#1089;&#1074;&#1103;&#1079;&#1077;&#1081;</text><path d="M55.5,197.5684 L55.5,237.8341 A0,0 0 0 0 55.5,237.8341 L314.5,237.8341 A0,0 0 0 0 314.5,237.8341 L314.5,221.7013 L361,275.5234 L314.5,213.7013 L314.5,207.5684 L304.5,197.5684 L55.5,197.5684 A0,0 0 0 0 55.5,197.5684 " fill="#FEFFDD" style="stroke:#181818;stroke-width:0.5;"/><path d="M304.5,197.5684 L304.5,207.5684 L314.5,207.5684 L304.5,197.5684 " fill="#FEFFDD" style="stroke:#181818;stroke-width:0.5;"/><text fill="#000000" font-family="sans-serif" font-size="13" lengthAdjust="spacing" textLength="238" x="61.5" y="214.6353">&#1047;&#1072;&#1087;&#1091;&#1089;&#1082; &#1072;&#1083;&#1075;&#1086;&#1088;&#1080;&#1090;&#1084;&#1086;&#1074; &#1085;&#1072; &#1074;&#1099;&#1087;&#1086;&#1083;&#1085;&#1077;&#1085;&#1080;&#1077;</text><text fill="#000000" font-family="sans-serif" font-size="13" lengthAdjust="spacing" textLength="145" x="61.5" y="229.7681">&#1074; &#1087;&#1086;&#1088;&#1103;&#1076;&#1082;&#1077; &#1072;&#1075;&#1088;&#1077;&#1075;&#1072;&#1094;&#1080;&#1080;</text><!--SRC=[lLhTQXj75BxtKmoEBnGbKjDRONnVQ4j9RWkBBCkEYA8rqiRGkWRBSUE2IXA7Gg7GEg4l82lUUlNhLvXzevvpPdTsPdPsjNAS64AarPmpvs- -yysHzkkDP_Mz9kkuEqsskVaz_BUrnGxN6FpjHvyzUUmqtCvkQmyMF6usl7fdhushDf8FX03-zRpkYuR7rla__8O7OPyF-Pm7tF-nmoTymMTy5huCJ-2Ju_0bz-7zWe_XinlkXyVqteVrStowpkezrcvrdZa7zQwpq-erkgrzp-qgc-7V0mRgv_mA12TXt-4ZXr_25gT28QknNkldfkEPCjSWCmpFQ3impm5BH-4RU1o0o6xRhNjbAN8aNyaNZNQzrmCl_ufz8ZKJK7d25-4nsVujslxT3z-m3VbADxt2oDCPckg0Yci-vKFOljNnZ7LWdOZcWaySjDoH4Rj2DyAN8AR9zBoTMkq0ikLsDyrSiEnKC5icjie5p06X83pdCrRxKdOyOB1W254J0LJIFioCaHdQ0ZeInopIYK3cbaOnPSafsrWa7CTKW9Kt3_lX2OLj8kgkb5bGzqtvFs2HAPrQT0FQfc1fSawI3S3gU8lIVNjmhc3j9OHt18kaWf6pl9fBgVGFmpSoCW-rVGeTVpJmm6tjV8A5SOA-b6sm4l93PsK1zatGY2aQ18-cuU_q-2DVOEmWTu1TLsBDA1o8CFAWbENsDUYWt88MwVRIy_F9wcG8inG9stqr6RUtgfYoR9iIsE-uNfDrMtjFFURkIbolrUuWHNgvVA1rX8MnHl23QVA-BZA2XTVea3GbW79K2myrIPbcPuVSIRUqhCxDSjepC01gpatPd3VIZopzUXQ-SMnA8GN0A7eUQpojTyiPSX1RZ2ebxWIaXxbI49Qpy1o0xWmRj4EU2LZx7UeMWopy77zkgd019lUZmYMoe4QmtGBp3tFRx2Zy5LuWO8rMQ_QhTtIepy-v6UOCGj472O14FRpZ9Bm-vIGAS9wzsCLWzQMW3sXxghZmuHTt96sMtRVRDFfRzFDgbV4B11Ow2Zx647ex_mzjn0ZXerDYifFm5Qm8G29DbdmuUu7O2RnzXMYZrMQfu35zoCnEELCrfLR7dyYmbRFwPgQDWpkqSf1Zvw2efLY-rwZ4H1OeZwNzQDlrFFSvDYGLGsei3JIYGO_m0TPYU4A8BZhD47mEm2yMxmt_u0ci6C4J7qvDAaHgEz4xes88DCSyx_IelZCxDHw_8OOQUw6HWXkAhP82KRhf4szsIiN7WOHzEWOBMLqaDrFQSdQ_Z77zRz5wgMEFeJy7CQu_QNfUgxFNevuetnocYq11Neqzv25PEijV34UYUm7QF75irL7IVRAiG0VUwe_BufWOBLZK_D6QDf2ej_USxNglQSuZvFCanlLje3LreZN6Vd6M6lLsmzdlkWqnpv3lz3pTC_A4E73EvuvaW4Z39cY_qbGKN31QXw4kLqk48VaQf446JRYLEJawLZPcS2Vc35Oqw44C1m6AEH4z9XvedR3ScboUulMNVtH8veJev9mEvWcnmstNRUSTotls6wXI3u0d9UtjC6ah3oEhyrkM82N9XSGtcOeVQxIsgNjPb-Iu0PRIdTdQDNKhLznheEuskAlzxXOLiuY71S1Br7_r9ct5z6YmmbBTHsnv6EFR4LDht7ubJl4_dUp1dbEyEOw8BGG4rDYKnrHy8xfMXlqq7H0CGg6AHzdi885NyFQS1cyBkWsFuPQfsRF04kLJl7mkvH_jvcvgWrgjK6gNKO-8RKWyckHHWpnZik58j-S2FZgccFfeE0E1cwWYVCmFFZQgNKoTVHcZrz3iBg7AXESGsw-ezAuY7v7XZDTrPi__X2rn8e4NvJvMWHZp1I8BWen0aWY589BCG5ISKSp2VlLMiSa5KTrCeuUZcRwOu5wIw133OwA1ZnSTp2M5I5AzS234HOeXYjFmjS34S63tmw0Xw8NNjdqf0ayFKppnGqo7ALaGKyb0lBRZ_RJVZ6N56yim89ewq3S9DPRrtKEvdFwImM2eA9sYhVaZWQ8apbHoAWe6FZwZH4n41ne9H0HuZ4kA6jkE-sAxtJHrd94PKnoaOJcEwIpCOtvijymoolcyb3YWoHj25neK88YA1b3AlgVAibrwsLDFJbGX02evUvge4l5rwsrEdrdRsnWuY7T1ssN4SilIBdxCUl5RZX3IJprIQU2wGOAKuHjLlvW56nDgOung35bHsSSe54FH8ND18Jxb6RUC-WlF9LpOKDyaPnnxyxkbzrcrorOaa3cFqgEaIdgWGijiLBPgrzegfhMLgPMQw-e-3OfvDLZThrYpMrIpc-FRlof5rvtG-Ngk8phJptIbKeJ69njbXC2mgrVShjudsTMps2KmIHd2nrrHaAouBoCZLNnG8Bm0V2-5xXK8T16BxTDJWUGfAYn10BheUzhvD_hQHrAqMp1Y4qBZFGgGOOXKwkB5r460EjaKm1emVMwnbiB6R7lqO2TMl8UzZLwcSyrvzEi0kiUy4YDDPBdwvW3AUWVHoPDRgMonzKVLQdbTVfkd2rWuKvc4lbvNHtkfNPOm9dLZyphqLkytu7X6fjVapqcgrItRBsJ8UJaHnaMfB-LeYPn9ggx5Ske2kh_aJVmGQA9zD9yItf7bYshf9XmousfG_4ejpf6DkQI_lyJreaAaiL5IDd-fLCpJUM7U3rHuoa23hBdvMhVvt3reAh-Taa_YwQMw93RZVm00]--></g></svg>